<svg width="24" height="25" viewBox="0 0 24 25" fill="none" xmlns="http://www.w3.org/2000/svg">
<g clip-path="url(#clip0_16_1889)">
<path d="M14.9998 20C15 20.5046 14.8094 20.9906 14.4664 21.3605C14.1233 21.7305 13.653 21.9572 13.1498 21.995L12.9998 22H10.9998C10.4953 22.0002 10.0093 21.8096 9.6393 21.4665C9.26932 21.1234 9.04269 20.6532 9.00485 20.15L8.99985 20H14.9998ZM11.9998 3C13.8148 2.99997 15.5589 3.70489 16.8641 4.96607C18.1693 6.22726 18.9336 7.94609 18.9958 9.76L18.9998 10V13.764L20.8218 17.408C20.9014 17.567 20.9412 17.7429 20.9378 17.9206C20.9345 18.0984 20.8881 18.2727 20.8027 18.4286C20.7173 18.5845 20.5953 18.7174 20.4473 18.8158C20.2993 18.9143 20.1297 18.9754 19.9528 18.994L19.8378 19H4.16185C3.98401 19.0001 3.80882 18.957 3.65127 18.8745C3.49372 18.792 3.35853 18.6725 3.25727 18.5264C3.156 18.3802 3.0917 18.2116 3.06985 18.0351C3.04801 17.8586 3.06928 17.6795 3.13185 17.513L3.17785 17.408L4.99985 13.764V10C4.99985 8.14348 5.73735 6.36301 7.0501 5.05025C8.36286 3.7375 10.1433 3 11.9998 3Z" fill="#CDCFCE"/>
</g>
<circle cx="18.5" cy="4.5" r="3.5" fill="#BA1A1A" stroke="#F4F6F5"/>
<defs>
<clipPath id="clip0_16_1889">
<rect width="24" height="24" fill="white" transform="translate(0 1)"/>
</clipPath>
</defs>
</svg>
