<svg width="8" height="14" viewBox="0 0 8 14" fill="none" xmlns="http://www.w3.org/2000/svg">
<path d="M7.05346 6.98119L7.05409 6.98057L7.05346 6.98119ZM7.05346 6.98119L6.69949 6.6272L1.06435 0.991772L1.41126 0.632595M7.05346 6.98119L1.41126 0.632595M1.41126 0.632595C1.21273 0.440853 0.895959 0.445924 0.703708 0.643922M1.41126 0.632595L1.05821 0.985626M1.05821 0.985626L1.05633 0.983752L1.05505 0.985031L0.703708 0.643922M1.05821 0.985626L1.05769 0.986141L1.06196 0.990404M1.05821 0.985626L1.06236 0.990011M0.703708 0.643922C0.516184 0.837074 0.515768 1.14367 0.702767 1.3373L1.05503 0.98505L0.703708 0.643922ZM1.06229 0.99213L1.06232 0.992119L1.06125 0.991086L1.06243 0.99223M1.06229 0.99213C1.06232 0.992092 1.06234 0.99222 1.06237 0.992171M1.06229 0.99213C1.06222 0.992253 1.06217 0.992493 1.06218 0.992494C1.06218 0.992497 1.06225 0.992414 1.06243 0.99223M1.06229 0.99213L1.06225 0.992148C1.06225 0.992148 1.06227 0.992141 1.06232 0.992129M1.06237 0.992171L1.06243 0.99223M1.06237 0.992171L1.06232 0.992129M1.06237 0.992171C1.06237 0.992163 1.06238 0.992155 1.06238 0.992147M1.06243 0.99223C1.06243 0.992223 1.06244 0.992216 1.06245 0.99221L1.06238 0.992147M1.06243 0.99223C1.06265 0.991997 1.06277 0.991889 1.06281 0.991856C1.06286 0.991806 1.06271 0.991939 1.06242 0.992075M1.06243 0.99223L1.06236 0.992122M1.06232 0.992129C1.06233 0.992128 1.06235 0.992125 1.06236 0.992122M1.06232 0.992129L1.06236 0.992122M1.06238 0.992147L1.06236 0.992122M1.06238 0.992147C1.06239 0.992124 1.06241 0.992101 1.06242 0.992075M1.06236 0.992122C1.06249 0.992092 1.06275 0.992048 1.06313 0.992042C1.06332 0.992039 1.06348 0.992047 1.06361 0.992059L1.06276 0.991211M1.06236 0.992122L1.06234 0.992109M1.06242 0.992075C1.06248 0.991953 1.06255 0.991805 1.06262 0.991637C1.06269 0.991451 1.06274 0.991309 1.06276 0.991211M1.06242 0.992075C1.0624 0.992087 1.06237 0.992098 1.06234 0.992109M1.06276 0.991211L1.06196 0.990404M1.06276 0.991211C1.06281 0.991028 1.06279 0.990996 1.06279 0.991106C1.06279 0.991276 1.06283 0.991103 1.06262 0.990559C1.06253 0.990338 1.06244 0.990154 1.06236 0.990011M1.06234 0.992109L1.06127 0.991067L1.06196 0.990404M1.06234 0.992109L1.06236 0.990011M1.06196 0.990404L1.06236 0.990011M7.0539 6.98119C7.05399 6.98097 7.05408 6.98079 7.05417 6.98064L7.05416 6.98277C7.05408 6.98263 7.05399 6.98244 7.0539 6.98222C7.05385 6.98209 7.05381 6.98199 7.05378 6.9819L7.05398 6.98171L7.05378 6.98151C7.05381 6.98143 7.05385 6.98132 7.0539 6.98119Z" fill="black" stroke="#1C1F1E"/>
</svg>
