<svg width="22" height="22" viewBox="0 0 22 22" fill="none" xmlns="http://www.w3.org/2000/svg">
<g id="Group">
<path id="Vector" d="M20.898 18.5577V11.2784C20.898 10.6918 20.7787 10.1114 20.5473 9.57239C20.3159 9.03339 19.9773 8.5471 19.552 8.14309L12.6576 1.59463C12.2557 1.21286 11.7226 1 11.1683 1C10.614 1 10.0809 1.21286 9.67903 1.59463L2.78352 8.14309C2.35826 8.5471 2.01962 9.03339 1.78823 9.57239C1.55683 10.1114 1.4375 10.6918 1.4375 11.2784V18.5577C1.4375 19.1312 1.66531 19.6812 2.07082 20.0867C2.47632 20.4922 3.02631 20.72 3.59978 20.72H18.7357C19.3092 20.72 19.8592 20.4922 20.2647 20.0867C20.6702 19.6812 20.898 19.1312 20.898 18.5577Z" stroke="#1C274C" stroke-width="1.5" stroke-linecap="round" stroke-linejoin="round"/>
<path id="Vector_2" d="M7.9248 14.2332C7.9248 13.6597 8.15262 13.1097 8.55812 12.7042C8.96363 12.2987 9.51361 12.0709 10.0871 12.0709H12.2494C12.8228 12.0709 13.3728 12.2987 13.7783 12.7042C14.1838 13.1097 14.4116 13.6597 14.4116 14.2332V20.72H7.9248V14.2332Z" stroke="#1C274C" stroke-width="1.5" stroke-linecap="round" stroke-linejoin="round"/>
</g>
</svg>
