<svg width="115" height="34" viewBox="0 0 115 34" fill="none" xmlns="http://www.w3.org/2000/svg">
<g clip-path="url(#clip0_125_2685)">
<path d="M90.21 33.2336C88.0333 33.2689 85.8725 32.8584 83.8604 32.0272C81.8484 31.1961 80.0277 29.9619 78.5106 28.4007C76.9498 26.8844 75.7158 25.0647 74.8847 23.0537C74.0535 21.0426 73.6427 18.8827 73.6776 16.707C73.6424 14.5312 74.053 12.3712 74.8842 10.3601C75.7154 8.34898 76.9495 6.52935 78.5106 5.01329C80.0449 3.47739 81.867 2.25896 83.8725 1.42765C85.878 0.596343 88.0277 0.168457 90.1987 0.168457C92.3697 0.168457 94.5194 0.596343 96.525 1.42765C98.5305 2.25896 100.353 3.47739 101.887 5.01329C103.45 6.5264 104.687 8.34351 105.521 10.3527C106.355 12.3618 106.769 14.5205 106.737 16.6957H98.4734C98.4903 15.608 98.2829 14.5286 97.8643 13.5246C97.4456 12.5206 96.8246 11.6136 96.04 10.8601C95.2761 10.0905 94.3674 9.47968 93.3663 9.06284C92.3652 8.64601 91.2916 8.4314 90.2072 8.4314C89.1228 8.4314 88.0491 8.64601 87.0481 9.06284C86.047 9.47968 85.1383 10.0905 84.3744 10.8601C83.5898 11.6136 82.9687 12.5206 82.5501 13.5246C82.1314 14.5286 81.9241 15.608 81.941 16.6957C81.9248 17.7833 82.1324 18.8626 82.551 19.8665C82.9697 20.8704 83.5903 21.7774 84.3744 22.5313C85.1289 23.3141 86.0363 23.9335 87.0401 24.3511C88.0439 24.7687 89.1229 24.9756 90.21 24.959H98.4734V33.2336H90.21Z" fill="#65CDC3"/>
<path d="M115 24.959H106.737V33.2223H115V24.959Z" fill="#24A295"/>
<path d="M51.5236 0C47.1419 0 42.9397 1.7406 39.8414 4.83888C36.7431 7.93717 35.0024 12.1393 35.0024 16.521C35.0024 20.9026 36.7431 25.1048 39.8414 28.2031C42.9397 31.3014 47.1419 33.042 51.5236 33.042H68.0447V16.521C68.0447 12.1393 66.3041 7.93717 63.2057 4.83888C60.1074 1.7406 55.9052 0 51.5236 0V0ZM59.9334 24.9307H51.5236C49.8602 24.9307 48.2343 24.4375 46.8513 23.5134C45.4683 22.5894 44.3904 21.2759 43.7539 19.7393C43.1174 18.2026 42.9508 16.5117 43.2753 14.8803C43.5998 13.249 44.4008 11.7505 45.5769 10.5744C46.753 9.39826 48.2515 8.59731 49.8829 8.27281C51.5142 7.94832 53.2052 8.11486 54.7419 8.75138C56.2785 9.38789 57.592 10.4658 58.5161 11.8488C59.4402 13.2318 59.9334 14.8577 59.9334 16.521V24.9307Z" fill="#65CDC3"/>
<path d="M29.364 0.0673828H18.7404H10.6235H0V8.18424H10.6235V33.0418H18.7404V8.18424H29.364V0.0673828Z" fill="#65CDC3"/>
</g>
<defs>
<clipPath id="clip0_125_2685">
<rect width="115" height="33.2222" fill="white"/>
</clipPath>
</defs>
</svg>
