<svg width="18" height="28" viewBox="0 0 18 28" fill="none" xmlns="http://www.w3.org/2000/svg">
<path d="M8.50791 11.7285C8.51094 10.8609 8.24753 10.0131 7.75328 9.29998C7.25903 8.58682 6.55776 8.04257 5.74424 7.74079V0.935918C5.74424 0.859868 5.71402 0.786932 5.66025 0.733156C5.60647 0.679381 5.53354 0.64917 5.45749 0.64917H3.04942C2.97355 0.649442 2.90088 0.679773 2.84732 0.733519C2.79377 0.787265 2.7637 0.860045 2.7637 0.935918V7.74079C1.95018 8.04257 1.24891 8.58682 0.754656 9.29998C0.260404 10.0131 -0.00300513 10.8609 2.58669e-05 11.7285V27.3157C2.58669e-05 27.5716 2.58762e-05 27.9992 4.25397 27.9992C8.50791 27.9992 8.50791 27.5716 8.50791 27.3157V11.7285ZM3.33617 3.09526H5.17177V6.64004H3.33617V3.09526ZM5.17177 1.22164V2.51766H3.33617V1.22164H5.17177ZM7.93544 27.1841C7.04025 27.511 1.46768 27.511 0.572494 27.1841V11.7285C0.570889 10.9466 0.819369 10.1845 1.28164 9.55383C1.74391 8.92311 2.39574 8.45673 3.14192 8.22281C3.19931 8.2031 3.24901 8.16574 3.28389 8.11609C3.31878 8.06643 3.33708 8.00702 3.33617 7.94634V7.21251H5.17177V7.94634C5.17171 8.00717 5.191 8.06643 5.22684 8.11558C5.26268 8.16472 5.31322 8.2012 5.37115 8.21973C6.11679 8.45484 6.76777 8.92211 7.22908 9.55334C7.69039 10.1846 7.93789 10.9467 7.93544 11.7285V27.1841Z" fill="black"/>
<path d="M6.57801 13.9011H1.92838C1.85286 13.9019 1.78072 13.9325 1.72761 13.9862C1.6745 14.0399 1.64471 14.1124 1.64471 14.1879V22.963C1.64471 23.039 1.67493 23.112 1.7287 23.1657C1.78248 23.2195 1.85541 23.2497 1.93146 23.2497H6.57801C6.61567 23.2497 6.65296 23.2423 6.68775 23.2279C6.72254 23.2135 6.75415 23.1924 6.78077 23.1657C6.8074 23.1391 6.82852 23.1075 6.84293 23.0727C6.85734 23.0379 6.86476 23.0006 6.86476 22.963V14.1879C6.86476 14.1502 6.85734 14.1129 6.84293 14.0781C6.82852 14.0433 6.8074 14.0117 6.78077 13.9851C6.75415 13.9585 6.72254 13.9374 6.68775 13.9229C6.65296 13.9085 6.61567 13.9011 6.57801 13.9011ZM6.29229 22.6773H2.2141V14.4736H6.29435L6.29229 22.6773Z" fill="black"/>
<path d="M3.09998 20.6773H5.40835C5.4844 20.6773 5.55734 20.647 5.61111 20.5933C5.66489 20.5395 5.6951 20.4666 5.6951 20.3905C5.6951 20.3145 5.66489 20.2415 5.61111 20.1877C5.55734 20.134 5.4844 20.1038 5.40835 20.1038H3.09998C3.02393 20.1038 2.95099 20.134 2.89722 20.1877C2.84344 20.2415 2.81323 20.3145 2.81323 20.3905C2.81323 20.4666 2.84344 20.5395 2.89722 20.5933C2.95099 20.647 3.02393 20.6773 3.09998 20.6773Z" fill="black"/>
<path d="M3.09999 18.8613H5.40836C5.48131 18.8569 5.54984 18.8249 5.59994 18.7717C5.65005 18.7185 5.67795 18.6482 5.67795 18.5751C5.67795 18.502 5.65005 18.4317 5.59994 18.3785C5.54984 18.3253 5.48131 18.2932 5.40836 18.2888H3.09999C3.06096 18.2865 3.02186 18.2922 2.9851 18.3055C2.94834 18.3188 2.91469 18.3395 2.88623 18.3663C2.85776 18.3931 2.83508 18.4255 2.81958 18.4614C2.80408 18.4973 2.79608 18.536 2.79608 18.5751C2.79608 18.6142 2.80408 18.6529 2.81958 18.6888C2.83508 18.7247 2.85776 18.757 2.88623 18.7838C2.91469 18.8106 2.94834 18.8313 2.9851 18.8447C3.02186 18.858 3.06096 18.8637 3.09999 18.8613Z" fill="black"/>
<path d="M3.09999 17.0461H5.40836C5.48131 17.0418 5.54984 17.0097 5.59994 16.9565C5.65005 16.9033 5.67795 16.833 5.67795 16.7599C5.67795 16.6868 5.65005 16.6165 5.59994 16.5633C5.54984 16.5101 5.48131 16.478 5.40836 16.4737H3.09999C3.06096 16.4713 3.02186 16.477 2.9851 16.4903C2.94834 16.5036 2.91469 16.5243 2.88623 16.5512C2.85776 16.578 2.83508 16.6103 2.81958 16.6462C2.80408 16.6821 2.79608 16.7208 2.79608 16.7599C2.79608 16.799 2.80408 16.8377 2.81958 16.8736C2.83508 16.9095 2.85776 16.9418 2.88623 16.9686C2.91469 16.9954 2.94834 17.0161 2.9851 17.0295C3.02186 17.0428 3.06096 17.0485 3.09999 17.0461Z" fill="black"/>
<path d="M17.5947 15.667C17.5941 14.7196 17.2543 13.8037 16.6368 13.0852C16.6104 13.0532 16.5773 13.0273 16.5398 13.0096C16.5024 12.9918 16.4614 12.9825 16.4199 12.9824H10.8638C10.8222 12.9827 10.7812 12.9921 10.7435 13.0098C10.7059 13.0276 10.6726 13.0533 10.6459 13.0852C10.1688 13.6402 9.85527 14.317 9.74043 15.0398C9.6256 15.7627 9.71394 16.5033 9.9956 17.1789C10.2773 17.8544 10.7411 18.4384 11.3355 18.8656C11.9298 19.2929 12.6312 19.5465 13.3613 19.5982V25.6065C11.5966 25.771 10.241 27.3537 10.1814 27.4216C10.1466 27.4633 10.1244 27.5141 10.1174 27.568C10.1105 27.6219 10.1191 27.6767 10.1422 27.7259C10.1653 27.7751 10.2019 27.8167 10.2478 27.8458C10.2937 27.8749 10.3469 27.8903 10.4013 27.8902H16.8927C16.947 27.8903 17.0003 27.8749 17.0462 27.8458C17.0921 27.8167 17.1287 27.7751 17.1518 27.7259C17.1749 27.6767 17.1835 27.6219 17.1765 27.568C17.1696 27.5141 17.1474 27.4633 17.1126 27.4216C17.053 27.3496 15.6974 25.771 13.9337 25.6065V19.5982C14.9273 19.5253 15.8565 19.0798 16.5354 18.3508C17.2143 17.6218 17.5927 16.6631 17.5947 15.667ZM10.2615 15.667C10.261 14.9 10.5204 14.1555 10.9974 13.5549H16.2843C16.6225 13.977 16.8545 14.4739 16.9611 15.0042C17.0676 15.5344 17.0454 16.0825 16.8965 16.6024C16.7475 17.1223 16.4761 17.599 16.105 17.9924C15.7338 18.3858 15.2738 18.6845 14.7634 18.8634C14.253 19.0424 13.7072 19.0964 13.1716 19.0209C12.6361 18.9454 12.1264 18.7426 11.6854 18.4295C11.2444 18.1165 10.8849 17.7022 10.6369 17.2216C10.389 16.7409 10.2599 16.2078 10.2605 15.667H10.2615ZM11.0837 27.3178C11.6254 26.8327 12.5802 26.1471 13.6419 26.1471C14.7035 26.1471 15.6583 26.8327 16.2 27.3178H11.0837Z" fill="black"/>
<path d="M13.8166 17.5806C13.8166 17.5045 13.7863 17.4316 13.7326 17.3778C13.6788 17.324 13.6059 17.2938 13.5298 17.2938C13.074 17.2927 12.6373 17.1109 12.3155 16.7881C11.9937 16.4653 11.8132 16.0281 11.8134 15.5723C11.8091 15.4994 11.777 15.4308 11.7238 15.3807C11.6706 15.3306 11.6003 15.3027 11.5272 15.3027C11.4541 15.3027 11.3838 15.3306 11.3306 15.3807C11.2774 15.4308 11.2453 15.4994 11.241 15.5723C11.241 16.1798 11.4819 16.7625 11.911 17.1926C12.3401 17.6227 12.9223 17.8649 13.5298 17.8663C13.6057 17.8663 13.6785 17.8362 13.7322 17.7827C13.786 17.7291 13.8163 17.6565 13.8166 17.5806Z" fill="black"/>
</svg>
