<svg width="24" height="24" viewBox="0 0 24 24" fill="none" xmlns="http://www.w3.org/2000/svg">
<path d="M14.2666 6.26667C14.8926 6.26667 15.4 5.75926 15.4 5.13333C15.4 4.50741 14.8926 4 14.2666 4C13.6407 4 13.1333 4.50741 13.1333 5.13333C13.1333 5.75926 13.6407 6.26667 14.2666 6.26667Z" stroke="#828282" stroke-width="1.5" stroke-linecap="round" stroke-linejoin="round"/>
<path d="M12 18.7334V14.2001L8.59998 11.9334L12 8.53345L14.2666 10.8001L16.5333 11.9334" stroke="#828282" stroke-width="1.5" stroke-linecap="round" stroke-linejoin="round"/>
<path d="M5.19999 21C7.07776 21 8.59999 19.4777 8.59999 17.6C8.59999 15.7222 7.07776 14.2 5.19999 14.2C3.32222 14.2 1.79999 15.7222 1.79999 17.6C1.79999 19.4777 3.32222 21 5.19999 21Z" stroke="#828282" stroke-width="1.5" stroke-linecap="round" stroke-linejoin="round"/>
<path d="M18.8 21C20.6777 21 22.2 19.4777 22.2 17.6C22.2 15.7222 20.6777 14.2 18.8 14.2C16.9222 14.2 15.4 15.7222 15.4 17.6C15.4 19.4777 16.9222 21 18.8 21Z" stroke="#828282" stroke-width="1.5" stroke-linecap="round" stroke-linejoin="round"/>
</svg>
