<svg width="34" height="34" viewBox="0 0 34 34" fill="none" xmlns="http://www.w3.org/2000/svg">
<path fill-rule="evenodd" clip-rule="evenodd" d="M3 6.21875C3 5.99497 3.09219 5.78036 3.25628 5.62213C3.42038 5.4639 3.64294 5.375 3.875 5.375H6.5C6.69518 5.37505 6.88474 5.43803 7.03853 5.55392C7.19232 5.6698 7.30152 5.83195 7.34875 6.01456L8.0575 8.75H28.375C28.5079 8.75004 28.6391 8.77927 28.7585 8.83548C28.878 8.89169 28.9826 8.9734 29.0644 9.0744C29.1462 9.17541 29.203 9.29307 29.2307 9.41843C29.2583 9.5438 29.2559 9.67358 29.2237 9.79794L26.5987 19.9229C26.5515 20.1056 26.4423 20.2677 26.2885 20.3836C26.1347 20.4995 25.9452 20.5624 25.75 20.5625H10C9.80482 20.5624 9.61526 20.4995 9.46147 20.3836C9.30768 20.2677 9.19848 20.1056 9.15125 19.9229L5.8175 7.0625H3.875C3.64294 7.0625 3.42038 6.97361 3.25628 6.81537C3.09219 6.65714 3 6.44253 3 6.21875ZM8.495 10.4375L10.6825 18.875H25.0675L27.255 10.4375H8.495ZM11.75 23.9375C11.2859 23.9375 10.8408 24.1153 10.5126 24.4318C10.1844 24.7482 10 25.1774 10 25.625C10 26.0726 10.1844 26.5018 10.5126 26.8182C10.8408 27.1347 11.2859 27.3125 11.75 27.3125C12.2141 27.3125 12.6592 27.1347 12.9874 26.8182C13.3156 26.5018 13.5 26.0726 13.5 25.625C13.5 25.1774 13.3156 24.7482 12.9874 24.4318C12.6592 24.1153 12.2141 23.9375 11.75 23.9375ZM8.25 25.625C8.25 24.7299 8.61875 23.8715 9.27513 23.2385C9.9315 22.6056 10.8217 22.25 11.75 22.25C12.6783 22.25 13.5685 22.6056 14.2249 23.2385C14.8813 23.8715 15.25 24.7299 15.25 25.625C15.25 26.5201 14.8813 27.3785 14.2249 28.0115C13.5685 28.6444 12.6783 29 11.75 29C10.8217 29 9.9315 28.6444 9.27513 28.0115C8.61875 27.3785 8.25 26.5201 8.25 25.625ZM24 23.9375C23.5359 23.9375 23.0908 24.1153 22.7626 24.4318C22.4344 24.7482 22.25 25.1774 22.25 25.625C22.25 26.0726 22.4344 26.5018 22.7626 26.8182C23.0908 27.1347 23.5359 27.3125 24 27.3125C24.4641 27.3125 24.9092 27.1347 25.2374 26.8182C25.5656 26.5018 25.75 26.0726 25.75 25.625C25.75 25.1774 25.5656 24.7482 25.2374 24.4318C24.9092 24.1153 24.4641 23.9375 24 23.9375ZM20.5 25.625C20.5 24.7299 20.8687 23.8715 21.5251 23.2385C22.1815 22.6056 23.0717 22.25 24 22.25C24.9283 22.25 25.8185 22.6056 26.4749 23.2385C27.1313 23.8715 27.5 24.7299 27.5 25.625C27.5 26.5201 27.1313 27.3785 26.4749 28.0115C25.8185 28.6444 24.9283 29 24 29C23.0717 29 22.1815 28.6444 21.5251 28.0115C20.8687 27.3785 20.5 26.5201 20.5 25.625Z" fill="#000000"/>
</svg>
