<svg width="31" height="31" viewBox="0 0 31 31" fill="none" xmlns="http://www.w3.org/2000/svg">
<path d="M6.72192 16.5988C6.72192 14.9017 6.72192 14.0531 7.065 13.3071C7.40808 12.5612 8.05238 12.0089 9.34099 10.9044L10.591 9.833C12.9201 7.83658 14.0847 6.83838 15.4719 6.83838C16.8591 6.83838 18.0237 7.83658 20.3529 9.833L21.6029 10.9044C22.8915 12.0089 23.5358 12.5612 23.8788 13.3071C24.2219 14.0531 24.2219 14.9017 24.2219 16.5988V21.8993C24.2219 24.2564 24.2219 25.4349 23.4897 26.1671C22.7575 26.8993 21.5789 26.8993 19.2219 26.8993H11.7219C9.3649 26.8993 8.18639 26.8993 7.45416 26.1671C6.72192 25.4349 6.72192 24.2564 6.72192 21.8993V16.5988Z" stroke="#333333"/>
<path d="M18.5969 26.8994V20.3994C18.5969 19.8471 18.1492 19.3994 17.5969 19.3994H13.3469C12.7946 19.3994 12.3469 19.8471 12.3469 20.3994V26.8994" stroke="#333333" stroke-linecap="round" stroke-linejoin="round"/>
</svg>
