<svg width="40" height="40" viewBox="0 0 40 40" fill="none" xmlns="http://www.w3.org/2000/svg">
<rect width="40" height="40" rx="10" fill="#E4F3F7"/>
<path d="M28 13C28.5523 13 29 12.5523 29 12C29 11.4477 28.5523 11 28 11V13ZM13.5 13L28 13V11L13.5 11L13.5 13ZM13.5 18L21.5 18V16H13.5V18ZM12 14.5C12 13.6716 12.6716 13 13.5 13L13.5 11C11.567 11 10 12.567 10 14.5H12ZM10 14.5C10 16.433 11.567 18 13.5 18V16C12.6716 16 12 15.3284 12 14.5H10Z" fill="#FF9E00"/>
<path d="M11 20V14.5" stroke="#FF9E00" stroke-width="2"/>
<path d="M11 16.5H10.5V17L10.5 27V27.0329C10.5 27.4762 10.5 27.8581 10.5411 28.1639C10.5851 28.4917 10.6845 28.8058 10.9393 29.0607L10.9393 29.0607C11.1942 29.3155 11.5083 29.4149 11.8361 29.4589C12.1419 29.5 12.5238 29.5 12.9671 29.5L13 29.5L27 29.5C27.011 29.5 27.022 29.5 27.0329 29.5C27.4762 29.5 27.8581 29.5 28.1639 29.4589C28.4917 29.4149 28.8058 29.3155 29.0607 29.0607C29.3155 28.8058 29.4149 28.4917 29.4589 28.1639C29.5 27.8581 29.5 27.4762 29.5 27.0329C29.5 27.022 29.5 27.011 29.5 27V26V25.5H29H26C24.6193 25.5 23.5 24.3807 23.5 23C23.5 21.6193 24.6193 20.5 26 20.5H29H29.5V20V19L29.5 18.9671C29.5 18.5238 29.5 18.1419 29.4589 17.8361C29.4149 17.5083 29.3155 17.1942 29.0607 16.9393C28.8058 16.6845 28.4917 16.5851 28.1639 16.5411C27.8581 16.5 27.4762 16.5 27.0329 16.5L27 16.5L11 16.5Z" fill="#FF9E00" stroke="#FF9E00"/>
</svg>
