<svg width="45" height="44" viewBox="0 0 45 44" fill="none" xmlns="http://www.w3.org/2000/svg">
<path d="M0.864925 25.3973C0.699283 25.3971 0.537211 25.3491 0.39812 25.2592C0.259029 25.1692 0.148815 25.0411 0.0806748 24.8901C0.0125349 24.7391 -0.0106417 24.5717 0.0139205 24.4079C0.0384827 24.2441 0.109742 24.0908 0.219166 23.9665L21.055 0.290171C21.1512 0.179829 21.2743 0.0963228 21.4124 0.0478139C21.5505 -0.000694908 21.6988 -0.0125467 21.8429 0.013417C23.3789 0.268953 24.7636 0.57615 26.1464 0.88427C26.2608 0.904405 26.37 0.947474 26.4673 1.01089C26.5647 1.0743 26.6482 1.15674 26.7129 1.25326C26.7776 1.34978 26.822 1.45839 26.8437 1.57254C26.8653 1.68669 26.8636 1.80404 26.8387 1.91752C26.8138 2.031 26.7662 2.13828 26.6988 2.23289C26.6313 2.32751 26.5455 2.40751 26.4463 2.46809C26.3472 2.52867 26.2368 2.56857 26.1219 2.5854C26.0069 2.60223 25.8897 2.59563 25.7774 2.56601C24.5652 2.29664 23.353 2.02726 22.0348 1.79387L3.13154 23.2644L42.8199 16.329C41.6797 10.2635 37.0976 6.03097 28.842 3.40919C28.6242 3.3397 28.443 3.18656 28.3382 2.98345C28.2333 2.78035 28.2135 2.54391 28.2829 2.32616C28.3524 2.10841 28.5056 1.92717 28.7087 1.82233C28.9118 1.71749 29.1482 1.69763 29.366 1.76711C38.556 4.69056 43.7018 9.79298 44.6594 16.9222C44.6889 17.1428 44.6319 17.3662 44.5004 17.5458C44.3688 17.7253 44.1729 17.847 43.9537 17.8853L1.01714 25.3844C0.966861 25.393 0.915939 25.3973 0.864925 25.3973V25.3973Z" fill="#333333"/>
<path d="M0.863215 43.9998C0.647003 44.0002 0.438544 43.9193 0.279207 43.7731C0.119871 43.627 0.0213055 43.4263 0.00307127 43.2108C-0.0151629 42.9954 0.0482674 42.781 0.180774 42.6101C0.31328 42.4393 0.505177 42.3245 0.718381 42.2885L43.6586 34.8392C43.8838 34.8003 44.1153 34.8525 44.302 34.9842C44.4888 35.116 44.6155 35.3165 44.6545 35.5417C44.6934 35.7669 44.6412 35.9984 44.5095 36.1851C44.3777 36.3719 44.1772 36.4987 43.952 36.5376L1.01174 43.9896C0.962649 43.9976 0.91293 44.001 0.863215 43.9998V43.9998Z" fill="#333333"/>
<path d="M0.863114 37.8686C0.647675 37.8682 0.440234 37.787 0.281684 37.6411C0.123134 37.4953 0.0249795 37.2953 0.00657088 37.0806C-0.0118377 36.866 0.050835 36.6522 0.182234 36.4815C0.313633 36.3108 0.504224 36.1955 0.716434 36.1583L40.3624 29.2634C40.5868 29.2256 40.817 29.2781 41.0029 29.4095C41.1887 29.5409 41.315 29.7404 41.3542 29.9646C41.3935 30.1887 41.3424 30.4193 41.2122 30.606C41.0821 30.7926 40.8833 30.9202 40.6594 30.9609L1.01717 37.8557C0.966264 37.8643 0.914735 37.8686 0.863114 37.8686V37.8686Z" fill="#333333"/>
<path d="M43.8054 36.5505C43.6922 36.5505 43.5801 36.5282 43.4755 36.4848C43.3709 36.4415 43.2759 36.3779 43.1959 36.2978C43.1158 36.2177 43.0524 36.1226 43.0091 36.018C42.9659 35.9133 42.9437 35.8012 42.9438 35.688V19.8207C42.94 19.7053 42.9595 19.5902 43.0011 19.4824C43.0427 19.3747 43.1055 19.2763 43.1858 19.1933C43.2662 19.1103 43.3624 19.0443 43.4688 18.9992C43.5751 18.9541 43.6895 18.9309 43.805 18.9309C43.9205 18.9309 44.0349 18.9541 44.1412 18.9992C44.2476 19.0443 44.3438 19.1103 44.4241 19.1933C44.5045 19.2763 44.5673 19.3747 44.6089 19.4824C44.6505 19.5902 44.6699 19.7053 44.6662 19.8207V35.688C44.6664 35.8011 44.6443 35.9133 44.6012 36.0179C44.558 36.1225 44.4947 36.2176 44.4147 36.2978C44.3348 36.3779 44.2398 36.4414 44.1353 36.4848C44.0307 36.5282 43.9186 36.5505 43.8054 36.5505V36.5505Z" fill="#333333"/>
<path d="M4.24636 32.2896C3.41136 32.294 2.58995 32.0783 1.86487 31.6642C1.1398 31.25 0.536674 30.6521 0.116265 29.9307C0.00770254 29.7326 -0.0187083 29.4997 0.0427205 29.2823C0.104149 29.0649 0.248503 28.8804 0.444694 28.7684C0.640885 28.6564 0.873218 28.6259 1.09166 28.6835C1.3101 28.7411 1.49717 28.8822 1.61258 29.0764C2.22421 30.1475 3.47606 30.7287 4.73437 30.5294C6.00743 30.2896 6.96777 29.3366 7.15965 28.1041C7.1771 27.9922 7.21642 27.8848 7.27537 27.788C7.33433 27.6913 7.41176 27.6071 7.50325 27.5403C7.59474 27.4735 7.69849 27.4253 7.80859 27.3986C7.91868 27.3719 8.03296 27.3671 8.1449 27.3846C8.25684 27.402 8.36424 27.4413 8.46098 27.5003C8.55773 27.5592 8.64191 27.6367 8.70873 27.7282C8.77555 27.8196 8.82369 27.9234 8.85041 28.0335C8.87713 28.1436 8.8819 28.2579 8.86446 28.3698C8.55726 30.3338 7.05172 31.8477 5.02865 32.2268C4.76994 32.2683 4.50837 32.2893 4.24636 32.2896V32.2896Z" fill="#333333"/>
<path d="M11.3079 31.0446C10.4843 31.038 9.67691 30.8145 8.96709 30.3967C8.25726 29.9789 7.67005 29.3814 7.26456 28.6645C7.20658 28.5662 7.16869 28.4574 7.1531 28.3444C7.13751 28.2313 7.14452 28.1163 7.17374 28.006C7.20295 27.8957 7.25378 27.7923 7.32327 27.7018C7.39277 27.6113 7.47954 27.5356 7.57856 27.4789C7.67759 27.4222 7.78688 27.3857 7.90011 27.3716C8.01333 27.3575 8.12823 27.366 8.23814 27.3967C8.34804 27.4273 8.45076 27.4795 8.54034 27.5502C8.62992 27.6209 8.70457 27.7086 8.75995 27.8084C9.06063 28.3426 9.52018 28.77 10.0748 29.0312C10.6294 29.2924 11.2516 29.3744 11.855 29.266C12.47 29.176 13.0401 28.8915 13.4817 28.4541C13.9232 28.0166 14.2131 27.4493 14.3089 26.8351C14.3495 26.6141 14.4747 26.4176 14.658 26.2876C14.8413 26.1575 15.0681 26.1041 15.2901 26.1387C15.5122 26.1733 15.7119 26.2933 15.8469 26.473C15.9819 26.6526 16.0414 26.8779 16.0128 27.1008C15.8632 28.0715 15.4082 28.9693 14.7138 29.6639C14.0194 30.3584 13.1218 30.8136 12.1511 30.9634C11.8733 31.0173 11.5909 31.0445 11.3079 31.0446V31.0446Z" fill="#333333"/>
<path d="M18.5561 29.8106C18.1125 29.81 17.6714 29.7457 17.2461 29.6196C17.027 29.5543 16.8428 29.4046 16.7341 29.2035C16.6254 29.0023 16.601 28.7663 16.6663 28.5472C16.7316 28.3281 16.8813 28.1439 17.0824 28.0352C17.2836 27.9264 17.5196 27.902 17.7387 27.9674C18.1512 28.0922 18.587 28.1194 19.0118 28.0467C20.2766 27.8105 21.2637 26.8318 21.4592 25.615C21.4774 25.5033 21.5174 25.3962 21.5769 25.3C21.6365 25.2038 21.7144 25.1202 21.8062 25.0541C21.898 24.9879 22.002 24.9405 22.1121 24.9146C22.2223 24.8886 22.3365 24.8846 22.4482 24.9028C22.5599 24.921 22.6669 24.961 22.7631 25.0205C22.8594 25.08 22.9429 25.1579 23.0091 25.2498C23.0752 25.3416 23.1226 25.4455 23.1486 25.5557C23.1745 25.6658 23.1785 25.78 23.1603 25.8917C22.8495 27.829 21.307 29.3733 19.3245 29.7451C19.0708 29.7897 18.8137 29.8116 18.5561 29.8106V29.8106Z" fill="#333333"/>
<path d="M25.7122 28.5373C23.9742 28.5373 22.4077 27.6627 21.5609 26.1784C21.5009 26.08 21.4613 25.9705 21.4444 25.8565C21.4275 25.7425 21.4336 25.6263 21.4624 25.5147C21.4912 25.4031 21.5421 25.2984 21.6121 25.2069C21.6821 25.1153 21.7697 25.0387 21.8698 24.9816C21.97 24.9245 22.0805 24.8881 22.1949 24.8745C22.3094 24.8609 22.4254 24.8704 22.5361 24.9024C22.6468 24.9344 22.75 24.9883 22.8395 25.0609C22.929 25.1335 23.003 25.2233 23.0572 25.3251C23.679 26.4099 24.928 26.9773 26.2325 26.7762C26.8285 26.6625 27.3755 26.3691 27.7998 25.9353C28.2241 25.5016 28.5055 24.9484 28.6061 24.35C28.6235 24.238 28.6629 24.1306 28.7218 24.0339C28.7808 23.9371 28.8582 23.853 28.9497 23.7861C29.0412 23.7193 29.1449 23.6712 29.255 23.6445C29.3651 23.6177 29.4794 23.613 29.5913 23.6304C29.7033 23.6479 29.8107 23.6872 29.9074 23.7461C30.0042 23.8051 30.0884 23.8825 30.1552 23.974C30.222 24.0655 30.2701 24.1692 30.2969 24.2793C30.3236 24.3894 30.3283 24.5037 30.3109 24.6157C30.0083 26.5428 28.4889 28.0926 26.5286 28.4718C26.2586 28.5148 25.9856 28.5367 25.7122 28.5373Z" fill="#333333"/>
<path d="M32.7982 27.2903C31.9677 27.2886 31.1524 27.0678 30.4345 26.6502C29.7166 26.2326 29.1216 25.6331 28.7096 24.912C28.6028 24.7138 28.5778 24.4817 28.6399 24.2653C28.7019 24.0489 28.8462 23.8653 29.0417 23.7538C29.2373 23.6422 29.4688 23.6116 29.6866 23.6684C29.9045 23.7252 30.0915 23.865 30.2077 24.0578C30.516 24.5975 30.9848 25.0277 31.5489 25.2886C32.1131 25.5495 32.7445 25.6281 33.3554 25.5135C34.5934 25.3124 35.5694 24.3272 35.8111 23.0569C35.856 22.8337 35.9864 22.6369 36.1745 22.5084C36.3625 22.38 36.5933 22.3302 36.8175 22.3696C37.0422 22.4123 37.2407 22.5424 37.3697 22.7312C37.4987 22.92 37.5476 23.1522 37.5057 23.377C37.1312 25.3585 35.5841 26.8991 33.6524 27.211C33.3707 27.2638 33.0847 27.2903 32.7982 27.2903Z" fill="#333333"/>
<path d="M40.0497 26.0503C39.2078 26.0536 38.3802 25.8324 37.6522 25.4093C36.9243 24.9862 36.3224 24.3767 35.9086 23.6434C35.7953 23.4446 35.7656 23.209 35.8261 22.9883C35.8865 22.7677 36.0322 22.5801 36.231 22.4668C36.4298 22.3535 36.6654 22.3238 36.8861 22.3843C37.1068 22.4447 37.2944 22.5904 37.4077 22.7892C37.7119 23.3291 38.1744 23.7626 38.7328 24.0314C39.2912 24.3001 39.9186 24.391 40.5304 24.292C41.1316 24.1666 41.6826 23.8669 42.1145 23.4304C42.5465 22.9938 42.8403 22.4397 42.9593 21.8372C42.9808 21.726 43.0239 21.6202 43.0862 21.5257C43.1486 21.4312 43.2289 21.3499 43.3227 21.2865C43.4165 21.223 43.5218 21.1787 43.6327 21.156C43.7436 21.1333 43.8579 21.1326 43.969 21.154C44.0802 21.1755 44.186 21.2186 44.2805 21.2809C44.375 21.3433 44.4563 21.4236 44.5197 21.5174C44.5831 21.6112 44.6275 21.7165 44.6502 21.8274C44.6729 21.9383 44.6736 22.0526 44.6521 22.1637C44.4648 23.108 44.0016 23.9756 43.3211 24.6565C42.6406 25.3375 41.7734 25.8014 40.8293 25.9894C40.5714 26.0297 40.3107 26.05 40.0497 26.0503V26.0503Z" fill="#333333"/>
<path d="M26.248 14.4967C25.2485 14.4946 24.2667 14.233 23.3985 13.7378C22.5304 13.2425 21.8056 12.5304 21.2951 11.6711C20.5147 10.3516 20.2888 8.77664 20.6668 7.29098C21.4344 4.49208 23.9418 3.35277 27.3947 4.23193L27.6051 4.27252C27.716 4.29481 27.8215 4.33874 27.9155 4.4018C28.0095 4.46486 28.0902 4.54582 28.1529 4.64005C28.2156 4.73428 28.2591 4.83993 28.281 4.95099C28.3028 5.06204 28.3026 5.17631 28.2803 5.28728C28.258 5.39825 28.2141 5.50375 28.1511 5.59774C28.088 5.69173 28.007 5.77238 27.9128 5.83509C27.8186 5.89779 27.7129 5.94133 27.6019 5.9632C27.4908 5.98507 27.3765 5.98485 27.2656 5.96256L27.0128 5.91182C25.2047 5.45057 22.9713 5.40721 22.3357 7.72825C22.0737 8.76947 22.2349 9.87207 22.784 10.7947C23.1903 11.4807 23.7912 12.0305 24.5106 12.3744C25.2299 12.7182 26.0352 12.8406 26.8242 12.7259C27.6132 12.6113 28.3503 12.2647 28.942 11.7304C29.5337 11.196 29.9533 10.4979 30.1475 9.72457C30.4759 8.48379 30.1097 7.52899 29.0285 6.79375C28.847 6.662 28.724 6.46475 28.6855 6.24381C28.647 6.02288 28.696 5.79564 28.8222 5.61026C28.9485 5.42489 29.1419 5.29597 29.3616 5.25083C29.5813 5.20569 29.8099 5.24788 29.999 5.36847C31.6844 6.51607 32.3311 8.21534 31.8173 10.1535C31.502 11.3917 30.7845 12.4901 29.7773 13.2762C28.7701 14.0624 27.5303 14.4917 26.2527 14.4967H26.248Z" fill="#333333"/>
<path d="M26.4159 8.81884C26.3507 8.81867 26.2857 8.81124 26.2222 8.7967C25.9997 8.74465 25.8069 8.60666 25.6859 8.41288C25.5649 8.21909 25.5255 7.98529 25.5764 7.76257C26.2092 5.02086 27.6834 2.51992 29.8366 0.530063C29.9192 0.450515 30.0169 0.388259 30.124 0.346941C30.231 0.305622 30.3452 0.286071 30.4599 0.289433C30.5746 0.292794 30.6874 0.319 30.7918 0.366517C30.8963 0.414034 30.9902 0.481906 31.068 0.56616C31.1459 0.650414 31.2062 0.749357 31.2454 0.857195C31.2845 0.965034 31.3018 1.0796 31.2961 1.19419C31.2904 1.30878 31.262 1.42109 31.2124 1.52454C31.1628 1.62799 31.093 1.72051 31.0072 1.79667C29.1068 3.54945 27.8107 5.74687 27.2572 8.15094C27.2127 8.34078 27.1054 8.51002 26.9527 8.63125C26.8 8.75248 26.6109 8.81858 26.4159 8.81884Z" fill="#333333"/>
<path d="M0.864964 41.2655C0.751581 41.2657 0.639288 41.2434 0.534524 41.2C0.429759 41.1567 0.334583 41.0931 0.254452 41.0128C0.17432 40.9326 0.110809 40.8374 0.0675594 40.7326C0.0243096 40.6278 0.00217155 40.5154 0.00241441 40.4021V24.5348C-0.00136512 24.4194 0.0181125 24.3043 0.059689 24.1965C0.101265 24.0888 0.164092 23.9904 0.244432 23.9074C0.324772 23.8244 0.420984 23.7584 0.527349 23.7133C0.633713 23.6682 0.748057 23.645 0.86358 23.645C0.979104 23.645 1.09345 23.6682 1.19981 23.7133C1.30618 23.7584 1.40239 23.8244 1.48273 23.9074C1.56307 23.9904 1.6259 24.0888 1.66747 24.1965C1.70905 24.3043 1.72853 24.4194 1.72475 24.5348V40.4021C1.72511 40.5152 1.70315 40.6274 1.66011 40.7321C1.61708 40.8368 1.55382 40.9319 1.47396 41.0121C1.3941 41.0923 1.2992 41.156 1.1947 41.1995C1.0902 41.243 0.978149 41.2654 0.864964 41.2655V41.2655Z" fill="#333333"/>
</svg>
