<svg width="14" height="28" viewBox="0 0 14 28" fill="none" xmlns="http://www.w3.org/2000/svg">
<g clip-path="url(#clip0_117_1785)">
<path d="M6.60003 5.04663C7.0991 5.04663 7.58695 4.89864 8.00191 4.62137C8.41687 4.34411 8.74029 3.95002 8.93127 3.48894C9.12225 3.02787 9.17222 2.52051 9.07486 2.03104C8.9775 1.54157 8.73718 1.09195 8.38429 0.739062C8.03139 0.386171 7.58178 0.145848 7.09231 0.0484859C6.60283 -0.0488767 6.09548 0.00109331 5.6344 0.192077C5.17333 0.38306 4.77924 0.70648 4.50198 1.12144C4.22471 1.53639 4.07672 2.02425 4.07672 2.52331C4.07754 3.19229 4.34365 3.83363 4.81668 4.30667C5.28972 4.7797 5.93106 5.04581 6.60003 5.04663ZM6.60003 0.615819C6.9773 0.615819 7.3461 0.727691 7.65978 0.93729C7.97347 1.14689 8.21796 1.4448 8.36233 1.79335C8.5067 2.1419 8.54448 2.52543 8.47088 2.89545C8.39728 3.26547 8.2156 3.60535 7.94884 3.87212C7.68207 4.13888 7.34219 4.32056 6.97217 4.39416C6.60215 4.46776 6.21862 4.42998 5.87007 4.28561C5.52152 4.14124 5.22361 3.89675 5.01401 3.58306C4.80441 3.26938 4.69254 2.90058 4.69254 2.52331C4.69335 2.01766 4.89458 1.53296 5.25213 1.17541C5.60968 0.817862 6.09438 0.616633 6.60003 0.615819Z" fill="#333333" stroke="#333333" stroke-width="0.5"/>
<path d="M13.1631 14.4318L11.6821 8.33825C11.676 8.30961 11.6683 8.28134 11.659 8.25358C11.1325 6.57548 9.44206 5.40234 7.5438 5.40234H5.65324C3.75806 5.40234 2.06764 6.57548 1.54112 8.25358C1.54112 8.28129 1.52419 8.309 1.51803 8.33825L0.0385257 14.4318C-0.00279973 14.6018 -0.0102103 14.7783 0.0167175 14.9512C0.0436453 15.1241 0.104384 15.29 0.195461 15.4394C0.286538 15.5888 0.406167 15.7188 0.547512 15.822C0.688857 15.9251 0.849145 15.9994 1.01922 16.0406C1.12242 16.0665 1.22843 16.0794 1.33482 16.0791C1.63323 16.0798 1.92316 15.9799 2.15781 15.7955C2.39245 15.6111 2.55811 15.3531 2.62804 15.063L3.85967 10.1364L4.07213 11.522L2.23238 18.3792C2.22009 18.4248 2.21847 18.4726 2.22764 18.519C2.23681 18.5653 2.25652 18.6089 2.28524 18.6464C2.31397 18.6839 2.35094 18.7143 2.3933 18.7353C2.43566 18.7562 2.48226 18.7671 2.52951 18.7671H3.83658V25.789C3.83658 26.6496 4.46164 27.3501 5.23141 27.3501H5.51314C5.72777 27.3468 5.93847 27.2921 6.12759 27.1906C6.31671 27.0891 6.47873 26.9437 6.60006 26.7666C6.72139 26.9437 6.88341 27.0891 7.07253 27.1906C7.26165 27.2921 7.47236 27.3468 7.68698 27.3501H7.97026C8.74003 27.3501 9.35585 26.6496 9.35585 25.789V18.7671H10.6629C10.7102 18.7672 10.7569 18.7565 10.7993 18.7357C10.8418 18.7148 10.8789 18.6845 10.9077 18.647C10.9364 18.6094 10.9561 18.5657 10.9652 18.5192C10.9743 18.4728 10.9725 18.4248 10.9601 18.3792L9.12953 11.5174L9.34353 10.1318L10.5752 15.0584C10.6446 15.3493 10.8102 15.6082 11.0452 15.7932C11.2802 15.9782 11.5708 16.0784 11.8699 16.0775C11.9737 16.077 12.0771 16.0641 12.1778 16.0391C12.5216 15.9565 12.8185 15.7409 13.0033 15.4394C13.1881 15.138 13.2456 14.7756 13.1631 14.4318ZM5.51314 26.7343H5.23449C4.80495 26.7343 4.45548 26.3109 4.45548 25.789V18.7671H6.29215V25.789C6.29215 26.3109 5.94268 26.7343 5.51314 26.7343ZM8.74619 25.789C8.74619 26.3109 8.39825 26.7343 7.97641 26.7343H7.68698C7.25745 26.7343 6.90797 26.3109 6.90797 25.789V18.7671H8.75542L8.74619 25.789ZM12.0347 15.4433C11.9792 15.4568 11.9224 15.4635 11.8653 15.4633C11.7041 15.4638 11.5474 15.4098 11.4208 15.31C11.2942 15.2102 11.2051 15.0705 11.1679 14.9136L9.57138 8.51068C9.55437 8.44144 9.51385 8.38025 9.45674 8.33755C9.39963 8.29486 9.32947 8.27331 9.25825 8.27658C9.18702 8.27985 9.11913 8.30774 9.06618 8.35549C9.01322 8.40324 8.97848 8.46788 8.96788 8.5384L8.50602 11.4866C8.4968 11.5287 8.4968 11.5723 8.50602 11.6144L10.2703 18.1513H2.92517L4.68179 11.6144C4.69281 11.5727 4.69542 11.5293 4.68949 11.4866L4.22762 8.5384C4.21626 8.46867 4.18127 8.40498 4.12851 8.35799C4.07576 8.31101 4.00845 8.28359 3.93789 8.28034C3.86732 8.27709 3.79778 8.29821 3.74093 8.34015C3.68408 8.38209 3.64338 8.4423 3.62566 8.51068L2.0307 14.9152C1.98578 15.1002 1.86923 15.2597 1.70668 15.3587C1.54413 15.4578 1.3489 15.4882 1.16393 15.4433C0.978967 15.3983 0.819419 15.2818 0.720388 15.1192C0.621357 14.9567 0.590954 14.7615 0.635869 14.5765L2.11537 8.48451L2.12923 8.43832C2.57569 7.01271 4.02441 6.01816 5.65324 6.01816H7.5438C9.17264 6.01816 10.6229 7.01271 11.0694 8.43986C11.0694 8.45372 11.0694 8.46912 11.0817 8.48297L12.5612 14.5765C12.6063 14.761 12.5763 14.9559 12.4779 15.1184C12.3795 15.2809 12.2206 15.3977 12.0362 15.4433H12.0347Z" fill="#333333" stroke="#333333" stroke-width="0.5"/>
</g>
<defs>
<clipPath id="clip0_117_1785">
<rect width="13.2001" height="27.35" fill="white"/>
</clipPath>
</defs>
</svg>
