<svg width="24" height="21" viewBox="0 0 24 21" fill="none" xmlns="http://www.w3.org/2000/svg">
<g clip-path="url(#clip0_113_1749)">
<path d="M23.3055 15.2284C23.7429 14.7802 23.9914 14.181 23.9998 13.5547C23.995 13.2136 23.9158 12.8776 23.7677 12.5704C23.6196 12.2631 23.4062 11.9919 23.1425 11.7757C23.3802 11.5789 23.5718 11.3321 23.7036 11.0528C23.8354 10.7736 23.9042 10.4688 23.9051 10.1599C23.9144 9.85693 23.8521 9.556 23.7232 9.28164C23.5943 9.00727 23.4026 8.76722 23.1635 8.58099C23.4949 8.16996 23.6734 7.65649 23.6684 7.12836C23.6684 3.30731 17.4357 0.649414 11.8604 0.649414C6.15364 0.649414 -0.000202397 3.12836 -0.000202397 7.12836C-0.0142912 7.43744 0.0364635 7.74605 0.148793 8.03431C0.261123 8.32257 0.432538 8.5841 0.652 8.80205C0.310103 9.17104 0.121959 9.65677 0.12603 10.1599C0.129074 10.489 0.209168 10.8128 0.359885 11.1053C0.510601 11.3978 0.727742 11.6508 0.99388 11.8442C0.752155 12.0595 0.557703 12.3228 0.422811 12.6172C0.287919 12.9116 0.215519 13.2308 0.210185 13.5547C0.216625 14.1799 0.465567 14.7781 0.904466 15.2231C0.772345 15.3109 0.655143 15.4193 0.557325 15.5442C0.409936 15.7463 0.307805 15.9779 0.257886 16.2231C0.207967 16.4683 0.211431 16.7214 0.268042 16.9652C0.925504 19.3284 2.43504 20.6494 4.51788 20.6494H19.6605C21.7381 20.6494 23.2897 19.2968 23.8999 16.9652C23.9733 16.7361 23.9935 16.4933 23.9589 16.2552C23.9242 16.0171 23.8357 15.7901 23.7 15.5915C23.5922 15.447 23.4584 15.3239 23.3055 15.2284ZM11.8604 1.70205C16.8308 1.70205 22.6165 4.07047 22.6165 7.12836C22.6165 8.0652 22.059 8.18099 21.9222 8.18099H1.78809C1.26213 8.18099 1.05174 7.65468 1.05174 7.12836C1.05174 3.92836 6.74799 1.70205 11.8604 1.70205ZM2.01952 9.23362H21.938C22.0627 9.22515 22.1877 9.24339 22.3048 9.28713C22.4219 9.33088 22.5283 9.39912 22.6169 9.48729C22.7055 9.57547 22.7743 9.68155 22.8187 9.79846C22.8631 9.91536 22.882 10.0404 22.8742 10.1652C22.8828 10.4231 22.7892 10.674 22.6139 10.8632C22.4386 11.0525 22.1956 11.1648 21.938 11.1757H2.10368C1.85021 11.1596 1.61252 11.047 1.4394 10.861C1.26628 10.6751 1.17085 10.4299 1.17271 10.1757C1.17386 9.94211 1.26076 9.71706 1.41689 9.54337C1.57301 9.36967 1.78748 9.25944 2.01952 9.23362ZM15.6737 12.2284L14.6638 13.2178C14.5901 13.2748 14.5025 13.3112 14.4101 13.3232C14.3177 13.3353 14.2237 13.3225 14.1379 13.2863C13.8907 13.1863 11.7447 12.2336 11.7447 12.2336L15.6737 12.2284ZM22.9005 16.6863C22.5429 18.0178 21.696 19.5968 19.6605 19.5968H4.51788C2.90315 19.5968 1.81439 18.6231 1.28316 16.7126C1.24714 16.5308 1.28296 16.3421 1.3831 16.1863C1.45134 16.1185 1.53437 16.0676 1.62565 16.0374C1.71692 16.0073 1.81394 15.9988 1.90907 16.0126H22.3009C22.3968 16.0005 22.4943 16.0109 22.5855 16.0429C22.6768 16.0748 22.7594 16.1275 22.8269 16.1968C22.8716 16.2662 22.9013 16.3442 22.914 16.4258C22.9267 16.5074 22.9221 16.5908 22.9005 16.6705V16.6863ZM21.5646 14.9652H2.62965C2.26944 14.9363 1.93205 14.7772 1.68042 14.5176C1.4288 14.2581 1.28012 13.9158 1.26213 13.5547C1.28537 13.2034 1.43812 12.8732 1.69078 12.6281C1.94343 12.3831 2.278 12.2406 2.62965 12.2284H9.46725L13.9012 14.1968C14.13 14.2763 14.3759 14.2934 14.6135 14.2462C14.8511 14.199 15.0718 14.0893 15.2529 13.9284C15.7789 13.4547 16.9728 12.2284 16.9728 12.2284H21.5646C21.9252 12.2318 22.271 12.3724 22.5318 12.6217C22.7926 12.8709 22.9489 13.2101 22.9689 13.5705C22.9474 13.9351 22.7922 14.2791 22.5331 14.5364C22.274 14.7937 21.9291 14.9464 21.5646 14.9652ZM10.9242 3.73889C10.9242 3.89503 10.8779 4.04767 10.7912 4.1775C10.7045 4.30732 10.5813 4.40851 10.4372 4.46827C10.293 4.52802 10.1344 4.54365 9.98132 4.51319C9.82827 4.48273 9.6877 4.40754 9.57736 4.29713C9.46702 4.18672 9.39188 4.04605 9.36144 3.89291C9.331 3.73976 9.34662 3.58103 9.40634 3.43677C9.46605 3.29251 9.56717 3.16921 9.69692 3.08246C9.82666 2.99572 9.97919 2.94941 10.1352 2.94941C10.3445 2.94941 10.5452 3.03259 10.6931 3.18065C10.8411 3.3287 10.9242 3.52951 10.9242 3.73889ZM13.149 2.94941C12.993 2.94941 12.8405 2.99572 12.7107 3.08246C12.581 3.16921 12.4799 3.29251 12.4201 3.43677C12.3604 3.58103 12.3448 3.73976 12.3752 3.89291C12.4057 4.04605 12.4808 4.18672 12.5912 4.29713C12.7015 4.40754 12.8421 4.48273 12.9951 4.51319C13.1482 4.54365 13.3068 4.52802 13.451 4.46827C13.5951 4.40851 13.7183 4.30732 13.805 4.1775C13.8917 4.04767 13.938 3.89503 13.938 3.73889C13.938 3.52951 13.8549 3.3287 13.7069 3.18065C13.559 3.03259 13.3583 2.94941 13.149 2.94941ZM14.9163 5.25468C14.7603 5.25468 14.6077 5.30098 14.478 5.38773C14.3482 5.47448 14.2471 5.59777 14.1874 5.74203C14.1277 5.88629 14.1121 6.04503 14.1425 6.19817C14.1729 6.35131 14.2481 6.49198 14.3584 6.60239C14.4688 6.7128 14.6093 6.78799 14.7624 6.81846C14.9154 6.84892 15.0741 6.83328 15.2182 6.77353C15.3624 6.71378 15.4856 6.61259 15.5723 6.48276C15.659 6.35293 15.7053 6.20029 15.7053 6.04415C15.7053 5.93913 15.6844 5.83517 15.6437 5.73834C15.6031 5.64151 15.5436 5.55377 15.4686 5.48025C15.3937 5.40673 15.3048 5.34891 15.2073 5.31018C15.1097 5.27145 15.0054 5.25258 14.9005 5.25468H14.9163ZM11.65 5.25468C11.494 5.25468 11.3415 5.30098 11.2117 5.38773C11.082 5.47448 10.9808 5.59777 10.9211 5.74203C10.8614 5.88629 10.8458 6.04503 10.8762 6.19817C10.9067 6.35131 10.9818 6.49198 11.0922 6.60239C11.2025 6.7128 11.3431 6.78799 11.4961 6.81846C11.6492 6.84892 11.8078 6.83328 11.9519 6.77353C12.0961 6.71378 12.2193 6.61259 12.306 6.48276C12.3927 6.35293 12.439 6.20029 12.439 6.04415C12.439 5.93913 12.4181 5.83517 12.3775 5.73834C12.3368 5.64151 12.2773 5.55377 12.2024 5.48025C12.1274 5.40673 12.0386 5.34891 11.941 5.31018C11.8435 5.27145 11.7392 5.25258 11.6342 5.25468H11.65ZM8.38375 5.25468C8.22771 5.25468 8.07518 5.30098 7.94544 5.38773C7.81569 5.47448 7.71457 5.59777 7.65486 5.74203C7.59514 5.88629 7.57952 6.04503 7.60996 6.19817C7.6404 6.35131 7.71554 6.49198 7.82588 6.60239C7.93622 6.7128 8.0768 6.78799 8.22984 6.81846C8.38288 6.84892 8.54151 6.83328 8.68568 6.77353C8.82984 6.71378 8.95306 6.61259 9.03975 6.48276C9.12644 6.35293 9.17271 6.20029 9.17271 6.04415C9.17273 5.93913 9.15181 5.83517 9.11118 5.73834C9.07055 5.64151 9.01102 5.55377 8.93608 5.48025C8.86114 5.40673 8.77229 5.34891 8.67474 5.31018C8.5772 5.27145 8.4729 5.25258 8.36798 5.25468H8.38375Z" fill="#333333"/>
</g>
<defs>
<clipPath id="clip0_113_1749">
<rect width="24" height="20" fill="white" transform="translate(0 0.649414)"/>
</clipPath>
</defs>
</svg>
