<svg width="28" height="28" viewBox="0 0 28 28" fill="none" xmlns="http://www.w3.org/2000/svg">
<path d="M16.6445 7.31095C17.3747 7.31095 17.9667 6.71897 17.9667 5.98873C17.9667 5.25848 17.3747 4.6665 16.6445 4.6665C15.9142 4.6665 15.3223 5.25848 15.3223 5.98873C15.3223 6.71897 15.9142 7.31095 16.6445 7.31095Z" stroke="#333333" stroke-width="1.8" stroke-linecap="round" stroke-linejoin="round"/>
<path d="M13.9999 21.8556V16.5667L10.0332 13.9222L13.9999 9.95557L16.6443 12.6L19.2888 13.9222" stroke="#333333" stroke-width="1.8" stroke-linecap="round" stroke-linejoin="round"/>
<path d="M6.06676 24.5002C8.25749 24.5002 10.0334 22.7243 10.0334 20.5336C10.0334 18.3428 8.25749 16.5669 6.06676 16.5669C3.87603 16.5669 2.1001 18.3428 2.1001 20.5336C2.1001 22.7243 3.87603 24.5002 6.06676 24.5002Z" stroke="#333333" stroke-width="1.8" stroke-linecap="round" stroke-linejoin="round"/>
<path d="M21.9332 24.5002C24.1239 24.5002 25.8999 22.7243 25.8999 20.5336C25.8999 18.3428 24.1239 16.5669 21.9332 16.5669C19.7425 16.5669 17.9666 18.3428 17.9666 20.5336C17.9666 22.7243 19.7425 24.5002 21.9332 24.5002Z" stroke="#333333" stroke-width="1.8" stroke-linecap="round" stroke-linejoin="round"/>
</svg>
