<svg width="25" height="24" viewBox="0 0 25 24" fill="none" xmlns="http://www.w3.org/2000/svg">
<g clip-path="url(#clip0_125_4557)">
<path d="M22.4999 12C22.5077 14.3266 21.7068 16.5835 20.2342 18.3848C18.7616 20.186 16.7088 21.4195 14.4271 21.8742C12.1454 22.329 9.77662 21.9767 7.726 20.8776C5.67538 19.7786 4.07041 18.0011 3.18571 15.8493C2.30101 13.6975 2.19157 11.3051 2.87611 9.08149C3.56064 6.8579 4.99662 4.94129 6.93833 3.6596C8.88003 2.37791 11.2068 1.81081 13.5205 2.05532C15.8342 2.29983 17.991 3.34076 19.6219 5H15.4999V7H20.6429C21.1353 6.99947 21.6073 6.80365 21.9554 6.45551C22.3036 6.10737 22.4994 5.63535 22.4999 5.143V0H20.4999V3.078C18.4532 1.24945 15.8409 0.178752 13.0997 0.0448441C10.3584 -0.0890641 7.65421 0.721932 5.43904 2.34229C3.22388 3.96266 1.63196 6.29421 0.929326 8.94729C0.226695 11.6004 0.455927 14.4142 1.57871 16.9186C2.7015 19.423 4.64981 21.4661 7.09803 22.7066C9.54625 23.947 12.346 24.3096 15.0295 23.7338C17.713 23.158 20.1175 21.6786 21.8412 19.5429C23.565 17.4072 24.5035 14.7445 24.4999 12H22.4999Z" fill="#374957"/>
</g>
<defs>
<clipPath id="clip0_125_4557">
<rect width="24" height="24" fill="white" transform="translate(0.5)"/>
</clipPath>
</defs>
</svg>
