<svg width="28" height="28" viewBox="0 0 28 28" fill="none" xmlns="http://www.w3.org/2000/svg">
<path d="M10.5 7C10.5 7.45963 10.5905 7.91475 10.7664 8.33939C10.9423 8.76403 11.2001 9.14987 11.5251 9.47487C11.8501 9.79988 12.236 10.0577 12.6606 10.2336C13.0852 10.4095 13.5404 10.5 14 10.5C14.4596 10.5 14.9148 10.4095 15.3394 10.2336C15.764 10.0577 16.1499 9.79988 16.4749 9.47487C16.7999 9.14987 17.0577 8.76403 17.2336 8.33939C17.4095 7.91475 17.5 7.45963 17.5 7C17.5 6.54037 17.4095 6.08525 17.2336 5.66061C17.0577 5.23597 16.7999 4.85013 16.4749 4.52513C16.1499 4.20012 15.764 3.94231 15.3394 3.76642C14.9148 3.59053 14.4596 3.5 14 3.5C13.5404 3.5 13.0852 3.59053 12.6606 3.76642C12.236 3.94231 11.8501 4.20012 11.5251 4.52513C11.2001 4.85013 10.9423 5.23597 10.7664 5.66061C10.5905 6.08525 10.5 6.54038 10.5 7L10.5 7Z" stroke="#FF9E00" stroke-width="1.8"/>
<path d="M5.17741 16.2181C4.77936 16.4479 4.43047 16.7539 4.15067 17.1185C3.87087 17.4832 3.66563 17.8994 3.54667 18.3433C3.42771 18.7873 3.39736 19.2503 3.45735 19.706C3.51734 20.1617 3.66651 20.6011 3.89632 20.9992C4.12613 21.3972 4.4321 21.7461 4.79674 22.0259C5.16139 22.3057 5.57758 22.511 6.02154 22.6299C6.46551 22.7489 6.92856 22.7792 7.38425 22.7192C7.83994 22.6592 8.27936 22.5101 8.67741 22.2803C9.07546 22.0505 9.42434 21.7445 9.70414 21.3798C9.98395 21.0152 10.1892 20.599 10.3081 20.155C10.4271 19.7111 10.4575 19.248 10.3975 18.7923C10.3375 18.3366 10.1883 17.8972 9.9585 17.4992C9.72868 17.1011 9.42272 16.7522 9.05807 16.4724C8.69342 16.1926 8.27724 15.9874 7.83327 15.8684C7.38931 15.7495 6.92626 15.7191 6.47056 15.7791C6.01487 15.8391 5.57545 15.9883 5.17741 16.2181L5.17741 16.2181Z" stroke="#FF9E00" stroke-width="1.8"/>
<path d="M22.8226 16.2181C23.2206 16.4479 23.5695 16.7539 23.8493 17.1185C24.1291 17.4832 24.3344 17.8994 24.4533 18.3433C24.5723 18.7873 24.6026 19.2503 24.5427 19.706C24.4827 20.1617 24.3335 20.6011 24.1037 20.9992C23.8739 21.3972 23.5679 21.7461 23.2033 22.0259C22.8386 22.3057 22.4224 22.511 21.9785 22.6299C21.5345 22.7489 21.0714 22.7792 20.6158 22.7192C20.1601 22.6592 19.7206 22.5101 19.3226 22.2803C18.9245 22.0505 18.5757 21.7445 18.2959 21.3798C18.0161 21.0152 17.8108 20.599 17.6919 20.155C17.5729 19.7111 17.5425 19.248 17.6025 18.7923C17.6625 18.3366 17.8117 17.8972 18.0415 17.4992C18.2713 17.1011 18.5773 16.7522 18.9419 16.4724C19.3066 16.1926 19.7228 15.9874 20.1667 15.8684C20.6107 15.7495 21.0737 15.7191 21.5294 15.7791C21.9851 15.8391 22.4245 15.9883 22.8226 16.2181L22.8226 16.2181Z" stroke="#FF9E00" stroke-width="1.8"/>
<path fill-rule="evenodd" clip-rule="evenodd" d="M10.5487 7.58167C10.5164 7.38993 10.5 7.19538 10.5 7.00001C10.5 6.54038 10.5905 6.08526 10.7664 5.66062C10.8182 5.53551 10.8772 5.41377 10.9428 5.29596C10.6395 5.38991 10.3401 5.49797 10.0457 5.61992C8.79198 6.13922 7.65285 6.90037 6.69331 7.85991C5.73377 8.81945 4.97262 9.95859 4.45332 11.2123C3.93403 12.466 3.66675 13.8097 3.66675 15.1667C3.66675 15.9381 3.75313 16.7053 3.92309 17.454C3.99229 17.3382 4.06826 17.2263 4.15071 17.1189C4.43052 16.7542 4.7794 16.4482 5.17745 16.2184C5.34665 16.1207 5.52332 16.0376 5.70553 15.9697C5.67974 15.7033 5.66675 15.4353 5.66675 15.1667C5.66675 14.0723 5.8823 12.9887 6.30108 11.9777C6.71987 10.9666 7.3337 10.0479 8.10752 9.27412C8.81386 8.56778 9.64087 7.99475 10.5487 7.58167ZM17.4513 7.58161C18.3592 7.99469 19.1863 8.56774 19.8926 9.27412C20.6665 10.0479 21.2803 10.9666 21.6991 11.9776C22.1179 12.9887 22.3334 14.0723 22.3334 15.1667C22.3334 15.4353 22.3204 15.7033 22.2946 15.9698C22.4768 16.0377 22.6534 16.1208 22.8226 16.2184C23.2206 16.4482 23.5695 16.7542 23.8493 17.1189C23.9318 17.2264 24.0078 17.3384 24.077 17.4542C24.247 16.7054 24.3334 15.9382 24.3334 15.1667C24.3334 13.8097 24.0661 12.466 23.5468 11.2123C23.0275 9.95858 22.2664 8.81944 21.3069 7.8599C20.3473 6.90036 19.2082 6.13922 17.9545 5.61992C17.66 5.49794 17.3605 5.38987 17.0571 5.2959C17.1228 5.41373 17.1818 5.53549 17.2336 5.66062C17.4095 6.08526 17.5 6.54038 17.5 7.00001C17.5 7.19535 17.4837 7.38989 17.4513 7.58161ZM21.0203 22.7491C20.8853 22.7471 20.7502 22.7373 20.6157 22.7196C20.16 22.6596 19.7206 22.5104 19.3226 22.2806C19.1535 22.183 18.9933 22.0717 18.8435 21.9479C18.3299 22.3148 17.775 22.623 17.1891 22.8657C16.1781 23.2845 15.0944 23.5 14.0001 23.5C12.9057 23.5 11.8221 23.2845 10.8111 22.8657C10.2251 22.623 9.67022 22.3148 9.15655 21.9479C9.00674 22.0716 8.84653 22.183 8.67745 22.2806C8.2794 22.5104 7.83999 22.6596 7.38429 22.7196C7.24988 22.7373 7.11483 22.7471 6.97981 22.7491C7.87667 23.5795 8.91455 24.2449 10.0457 24.7134C11.2994 25.2327 12.6431 25.5 14.0001 25.5C15.3571 25.5 16.7008 25.2327 17.9545 24.7134C19.0856 24.2449 20.1235 23.5795 21.0203 22.7491Z" fill="#FF9E00"/>
</svg>
