<svg width="55" height="55" viewBox="0 0 55 55" fill="none" xmlns="http://www.w3.org/2000/svg">
<path d="M20.625 13.75C20.625 14.6528 20.8028 15.5468 21.1483 16.3809C21.4938 17.2151 22.0002 17.973 22.6386 18.6114C23.277 19.2498 24.0349 19.7562 24.8691 20.1017C25.7032 20.4472 26.5972 20.625 27.5 20.625C28.4028 20.625 29.2968 20.4472 30.1309 20.1017C30.9651 19.7562 31.723 19.2498 32.3614 18.6114C32.9998 17.973 33.5062 17.2151 33.8517 16.3809C34.1972 15.5468 34.375 14.6528 34.375 13.75C34.375 12.8472 34.1972 11.9532 33.8517 11.119C33.5062 10.2849 32.9998 9.52704 32.3614 8.88864C31.723 8.25024 30.9651 7.74383 30.1309 7.39833C29.2968 7.05283 28.4028 6.875 27.5 6.875C26.5972 6.875 25.7032 7.05283 24.869 7.39833C24.0349 7.74383 23.277 8.25024 22.6386 8.88864C22.0002 9.52705 21.4938 10.2849 21.1483 11.1191C20.8028 11.9532 20.625 12.8472 20.625 13.75L20.625 13.75Z" stroke="#FF9E00" stroke-width="2"/>
<path d="M10.17 31.8578C9.3881 32.3092 8.70279 32.9102 8.15317 33.6265C7.60356 34.3427 7.20041 35.1602 6.96674 36.0323C6.73307 36.9044 6.67345 37.814 6.79129 38.7091C6.90914 39.6042 7.20213 40.4673 7.65355 41.2492C8.10497 42.0311 8.70597 42.7164 9.42224 43.266C10.1385 43.8156 10.956 44.2188 11.8281 44.4524C12.7002 44.6861 13.6097 44.7457 14.5048 44.6279C15.4 44.51 16.2631 44.217 17.045 43.7656C17.8269 43.3142 18.5122 42.7132 19.0618 41.9969C19.6114 41.2807 20.0145 40.4632 20.2482 39.5911C20.4819 38.719 20.5415 37.8094 20.4237 36.9143C20.3058 36.0192 20.0128 35.1561 19.5614 34.3742C19.11 33.5923 18.509 32.907 17.7927 32.3574C17.0764 31.8078 16.2589 31.4046 15.3869 31.171C14.5148 30.9373 13.6052 30.8777 12.7101 30.9955C11.815 31.1134 10.9519 31.4064 10.17 31.8578L10.17 31.8578Z" stroke="#FF9E00" stroke-width="2"/>
<path d="M44.83 31.8578C45.6119 32.3092 46.2972 32.9102 46.8468 33.6265C47.3964 34.3427 47.7996 35.1602 48.0333 36.0323C48.2669 36.9044 48.3266 37.814 48.2087 38.7091C48.0909 39.6042 47.7979 40.4673 47.3464 41.2492C46.895 42.0311 46.294 42.7164 45.5778 43.266C44.8615 43.8156 44.044 44.2188 43.1719 44.4524C42.2998 44.6861 41.3903 44.7457 40.4952 44.6279C39.6 44.51 38.7369 44.217 37.955 43.7656C37.1731 43.3142 36.4878 42.7132 35.9382 41.9969C35.3886 41.2807 34.9855 40.4632 34.7518 39.5911C34.5181 38.719 34.4585 37.8094 34.5763 36.9143C34.6942 36.0192 34.9872 35.1561 35.4386 34.3742C35.89 33.5923 36.491 32.907 37.2073 32.3574C37.9236 31.8078 38.7411 31.4046 39.6131 31.171C40.4852 30.9373 41.3948 30.8777 42.2899 30.9955C43.185 31.1134 44.0481 31.4064 44.83 31.8578L44.83 31.8578Z" stroke="#FF9E00" stroke-width="2"/>
<path fill-rule="evenodd" clip-rule="evenodd" d="M20.626 13.8806C20.6252 13.8374 20.6248 13.7942 20.6248 13.751C20.6248 13.0173 20.7422 12.2895 20.9716 11.5949C20.6792 11.6998 20.389 11.8118 20.1014 11.931C17.7558 12.9026 15.6245 14.3266 13.8292 16.1219C12.034 17.9172 10.6099 20.0485 9.63828 22.3941C8.66669 24.7397 8.16663 27.2537 8.16663 29.7926C8.16663 30.9505 8.27063 32.1032 8.47593 33.237C8.96278 32.691 9.5344 32.2254 10.1698 31.8586C10.2072 31.837 10.2448 31.8157 10.2827 31.7948C10.2055 31.1315 10.1666 30.4631 10.1666 29.7926C10.1666 27.5164 10.615 25.2624 11.486 23.1595C12.3571 21.0565 13.6339 19.1457 15.2434 17.5361C16.7913 15.9882 18.6179 14.7481 20.626 13.8806ZM34.3736 13.8804C36.3818 14.7479 38.2085 15.9881 39.7565 17.5361C41.366 19.1457 42.6428 21.0565 43.5139 23.1594C44.385 25.2624 44.8333 27.5164 44.8333 29.7926C44.8333 30.4631 44.7944 31.1317 44.7172 31.795C44.755 31.8158 44.7925 31.837 44.8298 31.8586C45.4653 32.2255 46.037 32.6912 46.5239 33.2373C46.7293 32.1033 46.8333 30.9506 46.8333 29.7926C46.8333 27.2537 46.3332 24.7397 45.3616 22.3941C44.39 20.0484 42.966 17.9172 41.1707 16.1219C39.3754 14.3266 37.2441 12.9025 34.8985 11.931C34.6108 11.8118 34.3205 11.6997 34.0279 11.5947C34.2574 12.2894 34.3748 13.0172 34.3748 13.751C34.3748 13.7941 34.3744 13.8373 34.3736 13.8804ZM39.9966 44.5443C39.2799 44.3957 38.5905 44.1334 37.9548 43.7664C37.9177 43.745 37.8807 43.7232 37.844 43.7011C36.7011 44.5511 35.4551 45.259 34.1331 45.8065C32.0302 46.6776 29.7762 47.126 27.5 47.126C25.2237 47.126 22.9698 46.6776 20.8668 45.8065C19.5448 45.259 18.2988 44.5511 17.1558 43.701C17.119 43.7231 17.082 43.7449 17.0448 43.7664C16.4092 44.1334 15.7198 44.3957 15.0033 44.5443C16.5289 45.8367 18.2483 46.8867 20.1014 47.6543C22.447 48.6259 24.9611 49.126 27.5 49.126C30.0389 49.126 32.5529 48.6259 34.8985 47.6543C36.7516 46.8867 38.471 45.8367 39.9966 44.5443Z" fill="#FF9E00"/>
</svg>
