<svg width="24" height="25" viewBox="0 0 24 25" fill="none" xmlns="http://www.w3.org/2000/svg">
<path fill-rule="evenodd" clip-rule="evenodd" d="M12.5091 6.85408L12 7.371L11.4908 6.854C10.5625 5.91094 9.29461 5.37988 7.97133 5.37988C6.64804 5.37988 5.38012 5.91094 4.45182 6.854C2.51606 8.84325 2.51606 12.0121 4.45182 14.0014L9.84448 19.477C10.413 20.0546 11.1896 20.3798 12 20.3798C12.8105 20.3798 13.587 20.0546 14.1556 19.477L19.5482 14.0015C21.484 12.0122 21.484 8.84335 19.5482 6.85409C18.6199 5.911 17.3519 5.37992 16.0286 5.37992C14.7053 5.37991 13.4374 5.91099 12.5091 6.85408Z" fill="#FF9E00" stroke="#FF9E00" stroke-width="2" stroke-linecap="round" stroke-linejoin="round"/>
</svg>
