<svg width="25" height="24" viewBox="0 0 25 24" fill="none" xmlns="http://www.w3.org/2000/svg">
<g clip-path="url(#clip0_125_3897)">
<path d="M21.5 24.0005H19.5V18.9575C19.4992 18.1735 19.1874 17.4218 18.633 16.8675C18.0787 16.3131 17.327 16.0013 16.543 16.0005H8.457C7.673 16.0013 6.92134 16.3131 6.36696 16.8675C5.81259 17.4218 5.50079 18.1735 5.5 18.9575V24.0005H3.5V18.9575C3.50159 17.6433 4.02435 16.3834 4.95363 15.4541C5.8829 14.5248 7.14281 14.0021 8.457 14.0005H16.543C17.8572 14.0021 19.1171 14.5248 20.0464 15.4541C20.9756 16.3834 21.4984 17.6433 21.5 18.9575V24.0005Z" fill="#374957"/>
<path d="M12.5 12C11.3133 12 10.1533 11.6481 9.16658 10.9888C8.17989 10.3295 7.41085 9.39246 6.95673 8.2961C6.5026 7.19975 6.38378 5.99335 6.61529 4.82946C6.8468 3.66558 7.41825 2.59648 8.25736 1.75736C9.09648 0.918247 10.1656 0.346802 11.3295 0.115291C12.4933 -0.11622 13.6997 0.00259972 14.7961 0.456726C15.8925 0.910851 16.8295 1.67989 17.4888 2.66658C18.1481 3.65328 18.5 4.81331 18.5 6C18.4984 7.59081 17.8658 9.11602 16.7409 10.2409C15.616 11.3658 14.0908 11.9984 12.5 12ZM12.5 2C11.7089 2 10.9355 2.2346 10.2777 2.67412C9.61993 3.11365 9.10724 3.73836 8.80448 4.46927C8.50173 5.20017 8.42252 6.00444 8.57686 6.78036C8.7312 7.55629 9.11217 8.26902 9.67158 8.82843C10.231 9.38784 10.9437 9.7688 11.7196 9.92314C12.4956 10.0775 13.2998 9.99827 14.0307 9.69552C14.7616 9.39277 15.3864 8.88008 15.8259 8.22228C16.2654 7.56449 16.5 6.79113 16.5 6C16.5 4.93914 16.0786 3.92172 15.3284 3.17158C14.5783 2.42143 13.5609 2 12.5 2Z" fill="#374957"/>
</g>
<defs>
<clipPath id="clip0_125_3897">
<rect width="24" height="24" fill="white" transform="translate(0.5)"/>
</clipPath>
</defs>
</svg>
