<svg width="44" height="44" viewBox="0 0 44 44" fill="none" xmlns="http://www.w3.org/2000/svg">
<g clip-path="url(#clip0_196_1993)">
<path d="M22.012 44C21.152 44.0004 20.3224 43.6822 19.6834 43.1067L18.8825 42.257C18.6532 42.04 18.3647 41.896 18.0535 41.843C17.7423 41.79 17.4223 41.8304 17.1341 41.9592L16.121 42.3646C15.3098 42.6903 14.4027 42.6818 13.5977 42.341C13.1962 42.175 12.832 41.9302 12.5269 41.621C12.2217 41.3117 11.9817 40.9444 11.8211 40.5407L11.3851 39.5741C11.1149 38.9328 10.5812 38.577 9.91163 38.577L8.77405 38.5259C7.00507 38.5259 5.53537 37.0921 5.46819 35.2612V34.1313C5.46819 33.4953 5.08645 32.9319 4.47567 32.6601L3.47246 32.2081C1.80197 31.4774 1.01329 29.5939 1.67981 27.9242L2.07376 26.8889C2.34938 26.2652 2.21119 25.6048 1.7386 25.1642L0.949161 24.3244C-0.315922 23.0609 -0.32203 21.004 0.952978 19.6619L1.71646 18.8984C2.22188 18.3945 2.35167 17.7669 2.08369 17.1309L1.67981 16.1163C1.35415 15.3039 1.3632 14.3956 1.705 13.5899C1.87068 13.1885 2.11525 12.8244 2.42423 12.5192C2.73321 12.214 3.1003 11.974 3.50376 11.8133L4.46879 11.3774C5.08568 11.1033 5.4659 10.5375 5.4659 9.90384V8.80825C5.4951 7.93551 5.8527 7.10596 6.46719 6.48553C7.08168 5.8651 7.90774 5.49953 8.78015 5.46192H9.90934C10.5453 5.46192 11.1088 5.08018 11.3806 4.4694L11.8341 3.46466C12.4922 1.81326 14.4223 0.99634 16.1202 1.6766L17.1196 2.07666C17.7709 2.35151 18.3977 2.2202 18.9008 1.71477L19.6506 0.965038C21.0065 -0.322186 23.0557 -0.317605 24.3375 0.954349L25.1277 1.69492C25.608 2.20722 26.273 2.34693 26.8494 2.08811L27.9435 1.67125C28.7544 1.3473 29.6606 1.35755 30.4641 1.69975C31.2675 2.04195 31.9028 2.68829 32.2311 3.49749L32.6671 4.46406C32.9412 5.08095 33.5069 5.46116 34.1406 5.46116H35.2392C37.1021 5.52911 38.5359 6.99957 38.5359 8.80825L38.5856 9.86872C38.5856 10.5765 38.9421 11.1101 39.5644 11.372L40.5836 11.8301C40.9793 11.992 41.3389 12.2309 41.6414 12.533C41.9439 12.8352 42.1833 13.1944 42.3457 13.5899C42.6866 14.3952 42.6949 15.3027 42.3686 16.114L41.9701 17.1118C41.7006 17.7524 41.8235 18.4036 42.3007 18.9144L43.0641 19.6244C44.3132 21.0079 44.3071 23.0509 43.0993 24.3252L42.2839 25.1406C42.0628 25.3574 41.9133 25.6366 41.8556 25.9408C41.7979 26.245 41.8346 26.5596 41.9609 26.8424L42.377 27.9341C43.0405 29.5901 42.2526 31.4744 40.5775 32.2096L39.585 32.657C38.9436 32.9273 38.5879 33.461 38.5879 34.1305L38.5329 35.2727C38.5329 37.0516 37.0548 38.5312 35.237 38.5312L34.1765 38.5801C33.4687 38.5801 32.9351 38.9366 32.674 39.5588L32.2159 40.5781C32.0539 40.9745 31.8146 41.3347 31.5119 41.6376C31.2092 41.9405 30.8493 42.1802 30.453 42.3425C29.6478 42.6833 28.7404 42.6918 27.9289 42.3662L26.8937 41.9714C26.6069 41.8364 26.2853 41.7932 25.973 41.8479C25.6608 41.9026 25.373 42.0524 25.1491 42.2768L24.3498 43.0777C23.7175 43.6733 22.8806 44.0035 22.012 44V44ZM17.7892 40.12C18.6443 40.1269 19.4641 40.4616 20.0796 41.0553L20.8691 41.8951C21.4844 42.4448 22.5365 42.4517 23.1595 41.86L23.9474 41.0751C24.4063 40.6101 24.9963 40.2964 25.6384 40.1759C26.2805 40.0554 26.9441 40.1339 27.5403 40.401L28.5458 40.7827C28.7443 40.8636 28.9569 40.9045 29.1712 40.9031C29.3855 40.9016 29.5975 40.8579 29.7949 40.7743C29.988 40.6952 30.1634 40.5783 30.3107 40.4304C30.4579 40.2825 30.5741 40.1066 30.6523 39.9131L31.1165 38.8794C31.363 38.2825 31.7826 37.7732 32.3211 37.417C32.8597 37.0607 33.4926 36.8739 34.1383 36.8806L35.198 36.8317C35.4109 36.8353 35.6223 36.7967 35.8202 36.7181C36.018 36.6395 36.1983 36.5224 36.3506 36.3737C36.5029 36.2249 36.6242 36.0475 36.7075 35.8515C36.7907 35.6556 36.8343 35.4451 36.8357 35.2322L36.8861 34.0946C36.8861 32.7876 37.6587 31.6271 38.9032 31.1033L39.8842 30.6613C40.7241 30.2933 41.1188 29.3695 40.7928 28.5556L40.3881 27.4928C40.1298 26.9007 40.0577 26.244 40.1814 25.6099C40.3051 24.9758 40.6187 24.3943 41.0806 23.9427L41.8792 23.1433C42.4556 22.5325 42.4495 21.4827 41.8487 20.8147L41.0997 20.1169C40.1186 19.0702 39.872 17.7219 40.3996 16.4705L40.7928 15.4864C40.9517 15.0887 40.9468 14.6443 40.779 14.2503C40.7 14.0572 40.583 13.8818 40.4351 13.7345C40.2872 13.5873 40.1113 13.4711 39.9178 13.3929L38.8841 12.9287C38.2873 12.6822 37.7779 12.2626 37.4217 11.7241C37.0654 11.1855 36.8786 10.5526 36.8853 9.90689L36.8364 8.84718C36.8348 8.4098 36.6642 7.98998 36.3603 7.67541C36.0564 7.36084 35.6427 7.17587 35.2057 7.15913H34.1368C32.8198 7.15913 31.6608 6.39566 31.1126 5.15577L30.6645 4.16325C30.5027 3.76566 30.1911 3.44759 29.7969 3.27763C29.4027 3.10768 28.9575 3.09944 28.5573 3.25471L27.4968 3.66011C26.2859 4.19913 24.8674 3.90595 23.9253 2.89664L23.1664 2.18813L23.1465 2.16904C22.5182 1.54146 21.5035 1.5491 20.8355 2.18355L20.101 2.91878C19.1085 3.9113 17.7541 4.18844 16.4737 3.65095L15.4888 3.25547C14.6757 2.93405 13.716 3.33182 13.3961 4.13042L12.9335 5.16111C12.3876 6.3926 11.2286 7.1599 9.91163 7.1599H8.81298C7.93575 7.19273 7.19747 7.93101 7.16387 8.83955V9.90842C7.16387 11.2254 6.40039 12.3844 5.16051 12.9326L4.16798 13.3807C3.96754 13.4578 3.78483 13.5747 3.63089 13.7245C3.47696 13.8742 3.35501 14.0536 3.27242 14.2518C3.10507 14.6459 3.10013 15.0902 3.25868 15.4879L3.65798 16.4865C4.19242 17.7478 3.9168 19.1053 2.92046 20.0993L2.17225 20.8491C1.87218 21.1558 1.70415 21.5678 1.70415 21.9969C1.70415 22.4261 1.87218 22.8381 2.17225 23.1448L2.94031 23.964C3.41801 24.4102 3.7432 24.9954 3.86981 25.6367C3.99643 26.278 3.91804 26.9429 3.64577 27.5371L3.26403 28.5434C2.93344 29.371 3.33045 30.2948 4.16111 30.6598L5.16738 31.1133C6.39887 31.6591 7.16616 32.8181 7.16616 34.1351V35.2337C7.18664 35.6597 7.36837 36.0619 7.67447 36.3588C7.98058 36.6557 8.38814 36.825 8.81451 36.8325L9.95209 36.8829C11.2584 36.8829 12.4181 37.657 12.9426 38.9L13.3839 39.881C13.461 40.0814 13.578 40.2639 13.7277 40.4178C13.8775 40.5716 14.0569 40.6934 14.2551 40.7758C14.649 40.9428 15.0928 40.9477 15.4904 40.7896L16.4913 40.388C16.9016 40.2127 17.343 40.1216 17.7892 40.12V40.12Z" fill="#333333"/>
<path d="M19.003 21.646C17.5791 21.646 16.5049 20.4001 16.5049 18.7487C16.5049 17.1522 17.602 15.9009 19.003 15.9009C19.2238 15.9075 19.4334 15.9999 19.5873 16.1585C19.7412 16.317 19.8273 16.5293 19.8273 16.7502C19.8273 16.9712 19.7412 17.1835 19.5873 17.342C19.4334 17.5006 19.2238 17.593 19.003 17.5996C18.5548 17.5996 18.2036 18.1043 18.2036 18.7448C18.2036 19.4167 18.5548 19.9435 19.003 19.9435C19.3809 19.9435 19.8023 19.4518 19.8023 18.7448C19.809 18.524 19.9014 18.3144 20.0599 18.1605C20.2185 18.0066 20.4308 17.9206 20.6517 17.9206C20.8727 17.9206 21.0849 18.0066 21.2435 18.1605C21.4021 18.3144 21.4945 18.524 21.5011 18.7448C21.5011 20.3466 20.3803 21.646 19.003 21.646Z" fill="#333333"/>
<path d="M25.0467 28.1396C23.6724 28.1396 22.5493 26.863 22.5493 25.2926C22.5493 23.6946 23.6701 22.3914 25.0467 22.3914C25.2675 22.398 25.4771 22.4904 25.631 22.6489C25.7849 22.8075 25.8709 23.0198 25.8709 23.2407C25.8709 23.4617 25.7849 23.674 25.631 23.8325C25.4771 23.9911 25.2675 24.0835 25.0467 24.0901C24.6687 24.0901 24.2481 24.5825 24.2481 25.2895C24.2481 25.9667 24.6687 26.4386 25.0467 26.4386C25.4246 26.4386 25.846 25.9667 25.846 25.2895C25.8526 25.0687 25.945 24.8591 26.1036 24.7052C26.2622 24.5513 26.4744 24.4652 26.6954 24.4652C26.9163 24.4652 27.1286 24.5513 27.2872 24.7052C27.4457 24.8591 27.5381 25.0687 27.5448 25.2895C27.5448 26.863 26.424 28.1396 25.0467 28.1396Z" fill="#333333"/>
<path d="M19.0022 28.1394C18.8535 28.1393 18.7074 28.1001 18.5785 28.0258C18.4497 27.9514 18.3426 27.8445 18.2681 27.7158C18.1935 27.5871 18.1541 27.441 18.1538 27.2923C18.1535 27.1435 18.1923 26.9973 18.2662 26.8682L24.3099 16.3276C24.3654 16.2309 24.4394 16.146 24.5277 16.0779C24.616 16.0097 24.7169 15.9596 24.8245 15.9304C24.9322 15.9013 25.0445 15.8936 25.1552 15.9078C25.2658 15.9221 25.3725 15.958 25.4693 16.0135C25.566 16.069 25.6509 16.143 25.719 16.2313C25.7872 16.3196 25.8373 16.4204 25.8665 16.5281C25.8956 16.6357 25.9033 16.7481 25.8891 16.8587C25.8748 16.9693 25.8389 17.0761 25.7834 17.1728L19.7397 27.7142C19.6652 27.8437 19.5577 27.9513 19.4282 28.026C19.2987 28.1007 19.1517 28.1398 19.0022 28.1394V28.1394Z" fill="#333333"/>
<path d="M21.9997 37.6304C13.3793 37.6304 6.36523 30.6155 6.36523 21.9951C6.36523 13.3747 13.3793 6.36061 21.9997 6.36061C25.0876 6.35604 28.106 7.27638 30.666 9.00301C30.7585 9.06527 30.8379 9.14515 30.8996 9.23809C30.9612 9.33103 31.004 9.4352 31.0254 9.54466C31.0468 9.65412 31.0465 9.76673 31.0243 9.87606C31.0022 9.98538 30.9588 10.0893 30.8965 10.1818C30.8343 10.2744 30.7544 10.3537 30.6615 10.4154C30.5685 10.4771 30.4644 10.5198 30.3549 10.5412C30.2454 10.5627 30.1328 10.5623 30.0235 10.5402C29.9142 10.5181 29.8103 10.4747 29.7177 10.4124C27.4378 8.87486 24.7497 8.05531 21.9997 8.05935C14.3153 8.05935 8.06397 14.3107 8.06397 21.9951C8.06397 29.6795 14.3153 35.9316 21.9997 35.9316C29.6841 35.9316 35.9363 29.6803 35.9363 21.9951C35.9348 19.1705 35.0806 16.4121 33.4855 14.0809C33.3588 13.8945 33.3114 13.6654 33.3537 13.4441C33.3959 13.2227 33.5243 13.0272 33.7107 12.9006C33.8971 12.7739 34.1262 12.7265 34.3475 12.7687C34.5689 12.811 34.7644 12.9394 34.8911 13.1258C36.678 15.7385 37.6346 18.8298 37.6358 21.9951C37.635 30.6155 30.6209 37.6304 21.9997 37.6304Z" fill="#333333"/>
</g>
<defs>
<clipPath id="clip0_196_1993">
<rect width="44" height="44" fill="white"/>
</clipPath>
</defs>
</svg>
