<svg width="43" height="44" viewBox="0 0 43 44" fill="none" xmlns="http://www.w3.org/2000/svg">
<g clip-path="url(#clip0_196_1952)">
<path d="M11.1872 28.967C11.008 28.9662 10.8337 28.9088 10.6891 28.8032C10.5445 28.6975 10.437 28.5488 10.3818 28.3784L5.084 11.9483C5.04229 11.8181 5.03259 11.6798 5.05571 11.5451C5.07883 11.4103 5.1341 11.2831 5.21683 11.1743C5.38172 10.9537 5.59852 10.8102 5.926 10.8392L41.3862 12.1873C41.5151 12.1919 41.6412 12.2261 41.7549 12.2871C41.8686 12.3481 41.9667 12.4343 42.0419 12.5392C42.1172 12.644 42.1678 12.7646 42.1897 12.8918C42.2117 13.019 42.2045 13.1495 42.1686 13.2736L38.5227 25.7593C38.4757 25.9227 38.3807 26.0682 38.25 26.177C38.1194 26.2859 37.9591 26.3531 37.7899 26.37L11.2704 28.9654C11.2427 28.9678 11.2149 28.9683 11.1872 28.967ZM7.07335 12.5819L11.7864 27.2066L37.054 24.7325L40.2342 13.8423L7.07335 12.5819Z" fill="#333333"/>
<path d="M5.54379 34.361C5.37491 34.3603 5.21007 34.3093 5.07034 34.2144C4.93062 34.1196 4.82236 33.9852 4.75941 33.8285C4.69647 33.6718 4.68169 33.4999 4.71698 33.3347C4.75227 33.1696 4.83602 33.0187 4.95752 32.9014L10.6011 27.5074C10.681 27.4267 10.7763 27.3629 10.8813 27.3196C10.9863 27.2764 11.0989 27.2546 11.2125 27.2556C11.326 27.2567 11.4382 27.2804 11.5425 27.3256C11.6467 27.3707 11.7408 27.4363 11.8192 27.5184C11.8977 27.6005 11.9588 27.6975 11.9992 27.8037C12.0395 27.9098 12.0581 28.023 12.0539 28.1365C12.0497 28.25 12.0228 28.3615 11.9748 28.4644C11.9268 28.5673 11.8587 28.6596 11.7744 28.7357L6.13082 34.1266C5.97265 34.2775 5.76235 34.3614 5.54379 34.361Z" fill="#333333"/>
<path d="M32.3671 10.888C32.2556 10.888 32.1453 10.8661 32.0423 10.8234C31.9394 10.7807 31.8459 10.7182 31.7671 10.6394C31.6883 10.5605 31.6259 10.4669 31.5833 10.364C31.5407 10.261 31.5189 10.1506 31.519 10.0392V8.74144H21.5753V9.64069C21.5787 9.75426 21.5593 9.86735 21.5182 9.97327C21.4771 10.0792 21.4151 10.1758 21.336 10.2573C21.2568 10.3389 21.1622 10.4037 21.0575 10.4479C20.9529 10.4922 20.8404 10.515 20.7268 10.515C20.6132 10.515 20.5007 10.4922 20.3961 10.4479C20.2914 10.4037 20.1968 10.3389 20.1176 10.2573C20.0385 10.1758 19.9765 10.0792 19.9354 9.97327C19.8943 9.86735 19.8749 9.75426 19.8783 9.64069V7.89257C19.8782 7.78113 19.9001 7.67077 19.9427 7.56778C19.9852 7.4648 20.0477 7.37121 20.1264 7.29238C20.2052 7.21354 20.2987 7.151 20.4017 7.10833C20.5046 7.06566 20.615 7.0437 20.7264 7.0437H32.3671C32.4785 7.0437 32.5889 7.06566 32.6918 7.10833C32.7948 7.151 32.8883 7.21354 32.967 7.29238C33.0458 7.37121 33.1083 7.4648 33.1508 7.56778C33.1934 7.67077 33.2153 7.78113 33.2152 7.89257V10.0399C33.2152 10.1513 33.1932 10.2616 33.1506 10.3645C33.108 10.4674 33.0455 10.5609 32.9668 10.6396C32.888 10.7184 32.7945 10.7809 32.6916 10.8235C32.5887 10.8661 32.4784 10.888 32.3671 10.888V10.888Z" fill="#333333"/>
<path d="M12.2846 10.1393C12.1732 10.1392 12.0628 10.1171 11.9598 10.0744C11.8569 10.0316 11.7634 9.96902 11.6846 9.89013C11.6059 9.81123 11.5434 9.7176 11.5008 9.61457C11.4583 9.51154 11.4364 9.40114 11.4365 9.28966V4.4453C11.4364 4.33387 11.4583 4.2235 11.5009 4.12051C11.5434 4.01753 11.6059 3.92394 11.6847 3.84511C11.7634 3.76627 11.8569 3.70374 11.9599 3.66107C12.0628 3.6184 12.1732 3.59644 12.2846 3.59644H27.6689C27.7803 3.59644 27.8907 3.6184 27.9936 3.66107C28.0965 3.70374 28.1901 3.76627 28.2688 3.84511C28.3476 3.92394 28.4101 4.01753 28.4526 4.12051C28.4952 4.2235 28.5171 4.33387 28.517 4.4453V7.89193C28.517 8.11686 28.4276 8.33258 28.2686 8.49163C28.1095 8.65068 27.8938 8.74003 27.6689 8.74003C27.4439 8.74003 27.2282 8.65068 27.0692 8.49163C26.9101 8.33258 26.8208 8.11686 26.8208 7.89193V5.29646H13.1335V9.29195C13.1331 9.51682 13.0435 9.73234 12.8843 9.89121C12.7252 10.0501 12.5095 10.1393 12.2846 10.1393V10.1393Z" fill="#333333"/>
<path d="M25.0714 5.29399C24.9599 5.29409 24.8495 5.2722 24.7464 5.22958C24.6434 5.18696 24.5498 5.12443 24.4709 5.04559C24.3921 4.96674 24.3296 4.87312 24.2869 4.77009C24.2443 4.66705 24.2224 4.55663 24.2225 4.44512V1.69698H15.9781V4.44512C15.9815 4.55869 15.9621 4.67178 15.921 4.7777C15.8799 4.88362 15.8179 4.98021 15.7388 5.06175C15.6597 5.14328 15.565 5.20811 15.4604 5.25237C15.3557 5.29664 15.2432 5.31945 15.1296 5.31945C15.016 5.31945 14.9036 5.29664 14.7989 5.25237C14.6943 5.20811 14.5996 5.14328 14.5205 5.06175C14.4413 4.98021 14.3794 4.88362 14.3383 4.7777C14.2972 4.67178 14.2777 4.55869 14.2811 4.44512V0.848878C14.281 0.737117 14.303 0.626438 14.3458 0.523203C14.3887 0.419968 14.4515 0.326214 14.5306 0.247329C14.6098 0.168444 14.7038 0.105984 14.8072 0.0635404C14.9105 0.0210965 15.0213 -0.00049443 15.1331 8.59117e-06H25.0714C25.1828 8.54603e-06 25.2932 0.0219707 25.3961 0.0646398C25.4991 0.107309 25.5926 0.169848 25.6714 0.248683C25.7501 0.327518 25.8126 0.421102 25.8552 0.524087C25.8977 0.627073 25.9196 0.737439 25.9195 0.848878V4.44512C25.9196 4.55656 25.8977 4.66693 25.8552 4.76991C25.8126 4.8729 25.7501 4.96648 25.6714 5.04532C25.5926 5.12415 25.4991 5.18669 25.3961 5.22936C25.2932 5.27203 25.1828 5.29399 25.0714 5.29399V5.29399Z" fill="#333333"/>
<path d="M8.53893 44.0001C6.91524 44.0001 5.54346 42.6261 5.54346 41.0039C5.54447 40.2098 5.86038 39.4484 6.42193 38.8869C6.98347 38.3254 7.74479 38.0094 8.53893 38.0084C8.65249 38.005 8.76559 38.0245 8.87151 38.0656C8.97743 38.1067 9.07402 38.1686 9.15556 38.2478C9.23709 38.3269 9.30191 38.4216 9.34618 38.5262C9.39044 38.6308 9.41325 38.7433 9.41325 38.8569C9.41325 38.9705 9.39044 39.083 9.34618 39.1876C9.30191 39.2923 9.23709 39.387 9.15556 39.4661C9.07402 39.5452 8.97743 39.6072 8.87151 39.6483C8.76559 39.6894 8.65249 39.7088 8.53893 39.7054C8.19628 39.7103 7.86906 39.8487 7.62675 40.091C7.38443 40.3333 7.24613 40.6605 7.2412 41.0031C7.2412 41.6833 7.86029 42.3009 8.53893 42.3009C8.88151 42.2958 9.20863 42.1574 9.4509 41.9151C9.69317 41.6728 9.83154 41.3457 9.83666 41.0031C9.84328 40.7825 9.93557 40.5731 10.094 40.4194C10.2524 40.2657 10.4644 40.1797 10.6851 40.1797C10.9059 40.1797 11.1179 40.2657 11.2763 40.4194C11.4347 40.5731 11.527 40.7825 11.5336 41.0031C11.5328 41.7974 11.2171 42.5588 10.6558 43.1206C10.0944 43.6824 9.33314 43.9987 8.53893 44.0001V44.0001Z" fill="#333333"/>
<path d="M33.2128 44.0001C31.5868 44.0001 30.2158 42.6261 30.2158 41.0039C30.2168 40.2095 30.533 39.448 31.0948 38.8864C31.6567 38.3248 32.4184 38.009 33.2128 38.0084C33.3264 38.005 33.4395 38.0245 33.5454 38.0656C33.6513 38.1067 33.7479 38.1686 33.8294 38.2478C33.911 38.3269 33.9758 38.4216 34.0201 38.5262C34.0643 38.6308 34.0871 38.7433 34.0871 38.8569C34.0871 38.9705 34.0643 39.083 34.0201 39.1876C33.9758 39.2923 33.911 39.387 33.8294 39.4661C33.7479 39.5452 33.6513 39.6072 33.5454 39.6483C33.4395 39.6894 33.3264 39.7088 33.2128 39.7054C32.8702 39.7103 32.5429 39.8487 32.3006 40.091C32.0583 40.3333 31.92 40.6605 31.9151 41.0031C31.9151 41.6833 32.5365 42.3009 33.2128 42.3009C33.5554 42.2958 33.8825 42.1574 34.1248 41.9151C34.3671 41.6728 34.5054 41.3457 34.5105 41.0031C34.5172 40.7825 34.6095 40.5731 34.7679 40.4194C34.9263 40.2657 35.1383 40.1797 35.359 40.1797C35.5798 40.1797 35.7918 40.2657 35.9502 40.4194C36.1086 40.5731 36.2009 40.7825 36.2075 41.0031C36.2067 41.7974 35.891 42.5588 35.3296 43.1206C34.7683 43.6824 34.007 43.9987 33.2128 44.0001V44.0001Z" fill="#333333"/>
<path d="M5.89317 12.5359C5.76876 12.536 5.64586 12.5086 5.5332 12.4559C5.42054 12.4031 5.32087 12.3262 5.24125 12.2306L2.69464 9.18551C2.55477 9.01209 2.48862 8.79068 2.51043 8.56896C2.53224 8.34724 2.64026 8.14295 2.81124 8.00011C2.98221 7.85726 3.20245 7.78729 3.42451 7.80526C3.64658 7.82323 3.8527 7.9277 3.99848 8.09618L6.54509 11.1451C6.68921 11.318 6.75876 11.5411 6.73843 11.7653C6.7181 11.9894 6.60956 12.1964 6.43669 12.3405C6.28432 12.4679 6.09175 12.5371 5.89317 12.5359V12.5359Z" fill="#333333"/>
<path d="M34.91 37.009H5.5438C5.4323 37.0092 5.32187 36.9874 5.21883 36.9448C5.11579 36.9022 5.02218 36.8397 4.94338 36.7608C4.86458 36.6819 4.80213 36.5883 4.75962 36.4852C4.71712 36.3821 4.69539 36.2717 4.69569 36.1602V33.512C4.69229 33.3985 4.71171 33.2854 4.75282 33.1794C4.79393 33.0735 4.85588 32.9769 4.93501 32.8954C5.01413 32.8139 5.10882 32.749 5.21346 32.7048C5.3181 32.6605 5.43056 32.6377 5.54418 32.6377C5.6578 32.6377 5.77026 32.6605 5.8749 32.7048C5.97954 32.749 6.07423 32.8139 6.15336 32.8954C6.23248 32.9769 6.29444 33.0735 6.33554 33.1794C6.37665 33.2854 6.39608 33.3985 6.39267 33.512V35.3113H34.91C35.2039 35.3113 35.4107 35.0739 35.4107 34.8609C35.4114 34.7949 35.399 34.7295 35.3741 34.6684C35.3492 34.6073 35.3123 34.5518 35.2656 34.5052C35.219 34.4586 35.1635 34.4217 35.1024 34.3968C35.0414 34.3719 34.9759 34.3594 34.91 34.3601H9.09043C8.8698 34.3535 8.66043 34.2612 8.50671 34.1028C8.35299 33.9444 8.26701 33.7324 8.26701 33.5116C8.26701 33.2909 8.35299 33.0789 8.50671 32.9205C8.66043 32.7621 8.8698 32.6698 9.09043 32.6631H34.91C35.4925 32.664 36.051 32.8958 36.4628 33.3078C36.8747 33.7198 37.1063 34.2783 37.1069 34.8609C37.1069 36.0449 36.1214 37.009 34.91 37.009Z" fill="#333333"/>
<path d="M16.2805 26.0226C16.1011 26.0224 15.9263 25.9654 15.7813 25.8596C15.6363 25.7539 15.5286 25.6049 15.4736 25.434L11.9789 14.646C11.9095 14.432 11.9279 14.1992 12.0301 13.9988C12.1323 13.7984 12.31 13.6468 12.524 13.5773C12.738 13.5079 12.9708 13.5263 13.1712 13.6285C13.3716 13.7307 13.5232 13.9084 13.5927 14.1224L17.0874 24.9103C17.1567 25.1243 17.1382 25.3571 17.036 25.5575C16.9338 25.7578 16.7563 25.9095 16.5424 25.979C16.458 26.0076 16.3696 26.0223 16.2805 26.0226V26.0226Z" fill="#333333"/>
<path d="M22.1253 25.4722C21.9456 25.4719 21.7706 25.4148 21.6253 25.3091C21.48 25.2034 21.3718 25.0545 21.3162 24.8837L18.0695 14.8453C18.0002 14.6308 18.0189 14.3976 18.1215 14.1969C18.2242 13.9962 18.4024 13.8444 18.6169 13.7751C18.8314 13.7058 19.0646 13.7245 19.2653 13.8271C19.4661 13.9298 19.6178 14.1079 19.6871 14.3224L22.9337 24.3608C23.0019 24.5751 22.9826 24.8076 22.8801 25.0078C22.7776 25.208 22.6001 25.3595 22.3864 25.4295C22.3021 25.457 22.214 25.4714 22.1253 25.4722V25.4722Z" fill="#333333"/>
<path d="M27.9685 24.9233C27.789 24.9232 27.6142 24.8662 27.4692 24.7604C27.3242 24.6546 27.2165 24.5056 27.1616 24.3347L24.1646 15.0979C24.095 14.8839 24.1134 14.6511 24.2155 14.4506C24.3176 14.2501 24.4953 14.0984 24.7093 14.0288C24.9233 13.9593 25.1561 13.9776 25.3566 14.0798C25.5571 14.1819 25.7088 14.3595 25.7784 14.5735L28.7792 23.8118C28.8137 23.9178 28.827 24.0295 28.8182 24.1406C28.8095 24.2517 28.779 24.36 28.7283 24.4593C28.6777 24.5585 28.608 24.6468 28.5232 24.7191C28.4384 24.7914 28.3402 24.8463 28.2341 24.8806C28.1486 24.9096 28.0588 24.9241 27.9685 24.9233Z" fill="#333333"/>
<path d="M33.8121 24.3241C33.6322 24.3237 33.4571 24.2664 33.3117 24.1604C33.1664 24.0544 33.0583 23.9052 33.0029 23.734L30.3059 15.3438C30.2409 15.1304 30.2624 14.9 30.3659 14.7023C30.4693 14.5046 30.6463 14.3556 30.8587 14.2873C31.0711 14.2191 31.3018 14.2371 31.5011 14.3375C31.7003 14.4379 31.852 14.6126 31.9235 14.8239L34.6213 23.2149C34.6619 23.3423 34.672 23.4775 34.6507 23.6094C34.6293 23.7414 34.5772 23.8665 34.4984 23.9746C34.4197 24.0826 34.3166 24.1706 34.1974 24.2313C34.0783 24.2921 33.9466 24.3238 33.8128 24.3241H33.8121Z" fill="#333333"/>
<path d="M37.7104 17.7309C37.5294 17.731 37.3531 17.6732 37.2072 17.5659C37.0613 17.4587 36.9536 17.3076 36.8997 17.1347L36.4005 15.5362C36.3568 15.4276 36.3362 15.3111 36.3398 15.194C36.3433 15.077 36.3711 14.962 36.4213 14.8562C36.4714 14.7504 36.543 14.6561 36.6313 14.5793C36.7197 14.5025 36.823 14.4448 36.9348 14.4098C37.0465 14.3749 37.1643 14.3634 37.2807 14.3761C37.3971 14.3889 37.5096 14.4256 37.6111 14.4839C37.7126 14.5423 37.801 14.621 37.8706 14.7151C37.9403 14.8092 37.9897 14.9167 38.0158 15.0309L38.5143 16.6286C38.5475 16.735 38.5594 16.8469 38.5494 16.958C38.5394 17.069 38.5076 17.177 38.4559 17.2757C38.4041 17.3745 38.3334 17.4621 38.2478 17.5335C38.1622 17.6049 38.0634 17.6588 37.957 17.692C37.8772 17.7173 37.7941 17.7305 37.7104 17.7309V17.7309Z" fill="#333333"/>
<path d="M2.39699 9.78952C1.76138 9.78871 1.15205 9.5358 0.702684 9.08629C0.253315 8.63678 0.000605979 8.02737 0 7.39176C0 6.04289 1.07559 4.94897 2.39699 4.94897C2.60825 4.96803 2.80475 5.06542 2.94785 5.22201C3.09095 5.3786 3.1703 5.58305 3.1703 5.79517C3.1703 6.0073 3.09095 6.21175 2.94785 6.36833C2.80475 6.52492 2.60825 6.62231 2.39699 6.64137C2.00461 6.64137 1.69621 6.96962 1.69621 7.38947C1.70221 7.57123 1.77863 7.74353 1.90933 7.86998C2.04002 7.99643 2.21475 8.06712 2.39661 8.06712C2.57846 8.06712 2.75319 7.99643 2.88388 7.86998C3.01458 7.74353 3.091 7.57123 3.097 7.38947C3.09359 7.27591 3.11302 7.16281 3.15413 7.05689C3.19523 6.95097 3.25719 6.85438 3.33631 6.77285C3.41544 6.69131 3.51013 6.62649 3.61477 6.58223C3.71941 6.53796 3.83187 6.51515 3.94549 6.51515C4.0591 6.51515 4.17157 6.53796 4.27621 6.58223C4.38085 6.62649 4.47554 6.69131 4.55466 6.77285C4.63379 6.85438 4.69574 6.95097 4.73685 7.05689C4.77796 7.16281 4.79738 7.27591 4.79397 7.38947C4.79398 8.02548 4.54153 8.63547 4.0921 9.08548C3.64266 9.53549 3.03299 9.78871 2.39699 9.78952V9.78952Z" fill="#333333"/>
</g>
<defs>
<clipPath id="clip0_196_1952">
<rect width="42.2023" height="44" fill="white"/>
</clipPath>
</defs>
</svg>
