<svg width="16" height="17" viewBox="0 0 16 17" fill="none" xmlns="http://www.w3.org/2000/svg">
<path d="M6.5 7.64917H3L5 9.64917V13.1492L8 11.6492L11 14.1492L10.5 10.6492L11 9.64917L12.5 7.64917H9.5L8 4.14917L6.5 7.64917Z" fill="#FF9E00"/>
<g clip-path="url(#clip0_106_1628)">
<path d="M12.9781 16.1926L8.00013 12.534L3.02213 16.1926L4.93346 10.284L-0.0418701 6.64865H6.1008L8.00013 0.72998L9.89946 6.64865H16.0415L11.0668 10.284L12.9781 16.1926ZM8.00013 10.8793L10.4388 12.672L9.50546 9.77598L11.9581 7.98198H8.9268L8.00013 5.09465L7.07346 7.98198H4.04146L6.4968 9.77598L5.56346 12.672L8.00013 10.8793Z" fill="#FF9E00"/>
</g>
<defs>
<clipPath id="clip0_106_1628">
<rect width="16" height="16" fill="white" transform="translate(0 0.64917)"/>
</clipPath>
</defs>
</svg>
