<svg width="37" height="44" viewBox="0 0 37 44" fill="none" xmlns="http://www.w3.org/2000/svg">
<path d="M35.0822 43.9999H32.8336C32.6191 43.9934 32.4156 43.9036 32.2662 43.7497C32.1168 43.5957 32.0332 43.3896 32.0332 43.1751C32.0332 42.9606 32.1168 42.7545 32.2662 42.6005C32.4156 42.4465 32.6191 42.3568 32.8336 42.3502H34.259V40.9993H21.8549V42.3502H29.0831C29.1935 42.3469 29.3035 42.3657 29.4066 42.4057C29.5096 42.4456 29.6036 42.5058 29.6829 42.5828C29.7622 42.6597 29.8253 42.7517 29.8684 42.8535C29.9114 42.9552 29.9336 43.0646 29.9336 43.1751C29.9336 43.2856 29.9114 43.3949 29.8684 43.4967C29.8253 43.5984 29.7622 43.6905 29.6829 43.7674C29.6036 43.8443 29.5096 43.9046 29.4066 43.9445C29.3035 43.9844 29.1935 44.0033 29.0831 43.9999H21.0294C20.9211 44 20.8138 43.9788 20.7136 43.9374C20.6135 43.896 20.5225 43.8353 20.4458 43.7587C20.3691 43.6822 20.3083 43.5912 20.2668 43.4912C20.2253 43.3911 20.204 43.2838 20.204 43.1755V40.1748C20.2039 40.0664 20.2252 39.9591 20.2666 39.8589C20.3081 39.7588 20.3689 39.6677 20.4455 39.5911C20.5222 39.5144 20.6132 39.4537 20.7134 39.4122C20.8136 39.3708 20.921 39.3495 21.0294 39.3496H35.0822C35.1906 39.3495 35.2979 39.3708 35.3981 39.4122C35.4982 39.4537 35.5892 39.5145 35.6658 39.5911C35.7424 39.6678 35.8032 39.7588 35.8445 39.859C35.8859 39.9591 35.9071 40.0665 35.9069 40.1748V43.1755C35.907 43.2838 35.8857 43.391 35.8443 43.4911C35.8029 43.5912 35.7422 43.6821 35.6656 43.7587C35.589 43.8353 35.498 43.896 35.3979 43.9374C35.2978 43.9788 35.1905 44 35.0822 43.9999Z" fill="#333333"/>
<path d="M33.6299 40.9995C33.5216 40.9996 33.4143 40.9783 33.3142 40.9369C33.2141 40.8955 33.1232 40.8348 33.0466 40.7582C32.97 40.6816 32.9092 40.5907 32.8678 40.4906C32.8264 40.3906 32.8051 40.2833 32.8052 40.175V39.2245C32.7983 38.6613 32.9049 38.1025 33.1185 37.5813C33.3322 37.0602 33.6485 36.5873 34.0488 36.191C34.6778 35.5606 34.9056 34.9875 34.9056 34.1753V29.8765C34.9022 29.766 34.9211 29.656 34.961 29.553C35.001 29.45 35.0612 29.3561 35.1382 29.2768C35.2151 29.1975 35.3072 29.1344 35.409 29.0914C35.5108 29.0483 35.6202 29.0261 35.7307 29.0261C35.8412 29.0261 35.9506 29.0483 36.0524 29.0914C36.1541 29.1344 36.2462 29.1975 36.3232 29.2768C36.4001 29.3561 36.4604 29.45 36.5003 29.553C36.5403 29.656 36.5591 29.766 36.5558 29.8765V34.1768C36.5558 35.4162 36.1491 36.4248 35.3153 37.26C34.7176 37.856 34.4554 38.5009 34.4554 39.226V40.1765C34.4553 40.2848 34.4339 40.3919 34.3923 40.4919C34.3508 40.5918 34.2899 40.6826 34.2133 40.759C34.1366 40.8355 34.0456 40.896 33.9455 40.9373C33.8455 40.9785 33.7382 40.9997 33.6299 40.9995Z" fill="#333333"/>
<path d="M23.0824 40.9994C22.9364 40.9994 22.7929 40.9608 22.6667 40.8873C22.5405 40.8139 22.4361 40.7084 22.3639 40.5814L20.6633 37.5816C19.9219 36.3667 19.5551 35.0157 19.5551 33.4745V31.4749C19.5551 31.256 19.642 31.0461 19.7968 30.8914C19.9516 30.7366 20.1616 30.6497 20.3805 30.6497C20.5994 30.6497 20.8094 30.7366 20.9642 30.8914C21.119 31.0461 21.206 31.256 21.206 31.4749V33.4745C21.206 34.7208 21.485 35.7607 22.0865 36.7449L23.8008 39.7684C23.9082 39.9588 23.9357 40.1839 23.8772 40.3945C23.8188 40.6051 23.6791 40.7839 23.489 40.8917C23.3652 40.9625 23.225 40.9996 23.0824 40.9994Z" fill="#333333"/>
<path d="M35.7334 30.7001C35.5148 30.7001 35.3051 30.6134 35.1505 30.4589C34.9959 30.3045 34.9089 30.095 34.9087 29.8764V28.1755C34.91 28.0588 34.8806 27.9438 34.8234 27.842C34.7663 27.7403 34.6834 27.6553 34.5831 27.5956C34.3918 27.4889 34.2508 27.3106 34.191 27.1C34.1312 26.8893 34.1576 26.6636 34.2643 26.4724C34.3711 26.2812 34.5494 26.1402 34.7601 26.0804C34.9708 26.0207 35.1966 26.047 35.3879 26.1537C35.7457 26.3559 36.0431 26.6499 36.2493 27.0053C36.4555 27.3607 36.5632 27.7647 36.5611 28.1755V29.8764C36.561 29.9849 36.5395 30.0923 36.4978 30.1924C36.4562 30.2925 36.3951 30.3835 36.3182 30.46C36.2413 30.5365 36.1501 30.5971 36.0497 30.6383C35.9494 30.6795 35.8419 30.7005 35.7334 30.7001Z" fill="#333333"/>
<path d="M32.6364 29.3003C32.528 29.3004 32.4206 29.2791 32.3204 29.2376C32.2202 29.1962 32.1292 29.1354 32.0525 29.0588C31.9758 28.9821 31.915 28.8911 31.8736 28.7909C31.8321 28.6908 31.8108 28.5834 31.8109 28.475V26.6251C31.8109 26.3417 31.6886 26.1247 31.4662 26.0139C31.3671 25.9667 31.2784 25.9003 31.2053 25.8185C31.1321 25.7367 31.076 25.6412 31.0403 25.5374C31.0045 25.4337 30.9898 25.3239 30.997 25.2144C31.0042 25.1049 31.0332 24.998 31.0822 24.8998C31.1313 24.8017 31.1994 24.7143 31.2826 24.6428C31.3659 24.5713 31.4625 24.5171 31.5669 24.4833C31.6714 24.4496 31.7815 24.437 31.8908 24.4463C32.0002 24.4557 32.1066 24.4867 32.2038 24.5376C32.991 24.9296 33.4619 25.7105 33.4619 26.6251V28.475C33.4619 28.6939 33.3749 28.9038 33.2201 29.0585C33.0653 29.2133 32.8553 29.3003 32.6364 29.3003Z" fill="#333333"/>
<path d="M20.3798 32.3002C20.1609 32.3002 19.9509 32.2132 19.7961 32.0585C19.6413 31.9037 19.5543 31.6938 19.5543 31.475C19.5543 30.772 19.8318 30.0835 20.3591 29.4822C20.43 29.3992 20.5167 29.3311 20.6142 29.2818C20.7116 29.2326 20.8179 29.2031 20.9267 29.1953C21.0356 29.1874 21.145 29.2012 21.2485 29.2359C21.3521 29.2706 21.4476 29.3255 21.5298 29.3975C21.6119 29.4694 21.6789 29.5569 21.7269 29.6549C21.775 29.753 21.803 29.8595 21.8095 29.9685C21.816 30.0775 21.8008 30.1866 21.7648 30.2897C21.7288 30.3927 21.6726 30.4876 21.5996 30.5687C21.4208 30.775 21.2052 31.0998 21.2052 31.475C21.2053 31.5834 21.1841 31.6907 21.1426 31.7909C21.1012 31.891 21.0404 31.9821 20.9637 32.0587C20.887 32.1354 20.796 32.1961 20.6958 32.2376C20.5956 32.279 20.4882 32.3003 20.3798 32.3002Z" fill="#333333"/>
<path d="M23.3316 33.5508C23.2232 33.5509 23.1158 33.5296 23.0156 33.4882C22.9154 33.4468 22.8243 33.386 22.7477 33.3093C22.671 33.2327 22.6102 33.1417 22.5687 33.0415C22.5273 32.9413 22.506 32.834 22.5061 32.7256V20.0751C22.5005 19.7597 22.5577 19.4464 22.6745 19.1533C22.7914 18.8603 22.9654 18.5935 23.1865 18.3684C23.4076 18.1434 23.6714 17.9646 23.9623 17.8426C24.2533 17.7206 24.5657 17.6577 24.8812 17.6577C25.1968 17.6577 25.5092 17.7206 25.8001 17.8426C26.0911 17.9646 26.3549 18.1434 26.576 18.3684C26.7971 18.5935 26.9711 18.8603 27.0879 19.1533C27.2048 19.4464 27.262 19.7597 27.2564 20.0751V28.5773C27.2564 28.7962 27.1694 29.0061 27.0146 29.1608C26.8598 29.3156 26.6498 29.4025 26.4309 29.4025C26.212 29.4025 26.002 29.3156 25.8472 29.1608C25.6924 29.0061 25.6054 28.7962 25.6054 28.5773V20.0751C25.6086 19.9781 25.5922 19.8814 25.5572 19.7908C25.5222 19.7002 25.4694 19.6176 25.4018 19.5478C25.3343 19.478 25.2534 19.4225 25.1639 19.3847C25.0745 19.3468 24.9784 19.3272 24.8812 19.3272C24.7841 19.3272 24.688 19.3468 24.5985 19.3847C24.5091 19.4225 24.4282 19.478 24.3606 19.5478C24.2931 19.6176 24.2402 19.7002 24.2053 19.7908C24.1703 19.8814 24.1539 19.9781 24.157 20.0751V32.7256C24.157 32.9445 24.0701 33.1544 23.9153 33.3091C23.7605 33.4639 23.5505 33.5508 23.3316 33.5508Z" fill="#333333"/>
<path d="M29.5324 29.0504C29.424 29.0505 29.3166 29.0292 29.2164 28.9878C29.1162 28.9463 29.0252 28.8855 28.9485 28.8089C28.8718 28.7322 28.811 28.6412 28.7696 28.5411C28.7281 28.4409 28.7069 28.3335 28.707 28.2251V25.4744C28.7086 25.3575 28.6771 25.2426 28.6161 25.143C28.5551 25.0433 28.4671 24.9629 28.3623 24.9112C28.1666 24.813 28.0181 24.641 27.9493 24.4332C27.8805 24.2254 27.8971 23.9989 27.9954 23.8033C28.0937 23.6077 28.2657 23.4592 28.4735 23.3904C28.6814 23.3217 28.908 23.3382 29.1036 23.4365C29.4819 23.6256 29.7998 23.9165 30.0215 24.2766C30.2431 24.6367 30.3596 25.0516 30.3579 25.4744V28.2251C30.358 28.3335 30.3367 28.4409 30.2953 28.5411C30.2538 28.6412 30.193 28.7322 30.1163 28.8089C30.0397 28.8855 29.9486 28.9463 29.8484 28.9878C29.7482 29.0292 29.6409 29.0505 29.5324 29.0504Z" fill="#333333"/>
<path d="M18.0799 40.9994H7.87629C6.63733 40.9994 5.53595 40.5524 4.69214 39.708L1.33679 36.304C0.451712 35.4176 0 34.3471 0 33.1253V3.17255C0 1.42428 1.44762 0 3.22542 0H28.733C29.575 0.00121321 30.3822 0.336199 30.9775 0.931499C31.5728 1.5268 31.9077 2.33382 31.9087 3.1756V21.9725C31.9087 22.1914 31.8217 22.4013 31.6669 22.556C31.5121 22.7108 31.3022 22.7977 31.0833 22.7977C30.8643 22.7977 30.6544 22.7108 30.4996 22.556C30.3448 22.4013 30.2578 22.1914 30.2578 21.9725V3.1756C30.2578 2.77096 30.0973 2.38283 29.8114 2.09635C29.5256 1.80987 29.1377 1.64841 28.733 1.6474H3.22542C2.37244 1.6474 1.65093 2.34579 1.65093 3.1756V33.1284C1.65093 33.9077 1.93143 34.5672 2.50849 35.1456L5.86308 38.5489C6.3981 39.0838 7.07299 39.3527 7.87629 39.3527H18.0799C18.2944 39.3593 18.4979 39.449 18.6473 39.603C18.7967 39.757 18.8803 39.9631 18.8803 40.1776C18.8803 40.3921 18.7967 40.5982 18.6473 40.7522C18.4979 40.9061 18.2944 40.9959 18.0799 41.0024V40.9994Z" fill="#333333"/>
<path d="M7.87632 40.9994C7.76793 40.9996 7.66056 40.9785 7.56037 40.9371C7.46018 40.8957 7.36913 40.835 7.29245 40.7584C7.21577 40.6819 7.15496 40.5909 7.1135 40.4908C7.07205 40.3906 7.05076 40.2833 7.05086 40.175V34.6734C7.04849 34.4821 6.97152 34.2993 6.83633 34.1639C6.70114 34.0284 6.51842 33.9511 6.32705 33.9483H4.02493C3.806 33.9483 3.59604 33.8614 3.44124 33.7066C3.28643 33.5518 3.19946 33.3419 3.19946 33.1231C3.19946 32.9042 3.28643 32.6943 3.44124 32.5396C3.59604 32.3848 3.806 32.2979 4.02493 32.2979H6.32705C6.95681 32.2987 7.56052 32.5493 8.00562 32.9947C8.45071 33.4401 8.70082 34.0439 8.70102 34.6734V40.175C8.70112 40.2833 8.67986 40.3905 8.63845 40.4906C8.59704 40.5907 8.5363 40.6816 8.45969 40.7582C8.38309 40.8348 8.29214 40.8955 8.19204 40.9369C8.09194 40.9783 7.98465 40.9995 7.87632 40.9994Z" fill="#333333"/>
<path d="M24.8823 15.7497C23.4622 15.7497 22.3058 14.6173 22.3058 13.2281C22.3058 11.839 23.4867 10.6523 24.8823 10.6523C25.1012 10.6523 25.3112 10.7393 25.466 10.894C25.6208 11.0488 25.7078 11.2587 25.7078 11.4776C25.7078 11.6964 25.6208 11.9063 25.466 12.0611C25.3112 12.2159 25.1012 12.3028 24.8823 12.3028C24.6388 12.309 24.4069 12.4085 24.2347 12.5807C24.0624 12.7529 23.9629 12.9847 23.9567 13.2281C23.9567 13.7103 24.3717 14.1023 24.8823 14.1023C24.9977 14.1036 25.1123 14.0818 25.2191 14.0382C25.326 13.9946 25.4231 13.9301 25.5046 13.8484C25.5862 13.7668 25.6506 13.6696 25.694 13.5627C25.7374 13.4558 25.759 13.3412 25.7574 13.2258C25.7541 13.1154 25.7729 13.0054 25.8129 12.9024C25.8528 12.7994 25.9131 12.7055 25.99 12.6261C26.067 12.5468 26.1591 12.4838 26.2608 12.4407C26.3626 12.3977 26.472 12.3755 26.5825 12.3755C26.693 12.3755 26.8024 12.3977 26.9042 12.4407C27.006 12.4838 27.0981 12.5468 27.175 12.6261C27.252 12.7055 27.3122 12.7994 27.3522 12.9024C27.3921 13.0054 27.411 13.1154 27.4076 13.2258C27.4112 13.5583 27.3483 13.8882 27.2227 14.1961C27.097 14.5039 26.9111 14.7836 26.6759 15.0187C26.4407 15.2538 26.1609 15.4395 25.8529 15.5651C25.5449 15.6906 25.2149 15.7533 24.8823 15.7497Z" fill="#333333"/>
<path d="M24.8823 8.70072C23.4622 8.70072 22.3058 7.56756 22.3058 6.17536C22.3058 4.78317 23.4867 3.60034 24.8823 3.60034C25.0968 3.60687 25.3003 3.69663 25.4497 3.85061C25.5991 4.00459 25.6826 4.21067 25.6826 4.42519C25.6826 4.63971 25.5991 4.84579 25.4497 4.99977C25.3003 5.15375 25.0968 5.24351 24.8823 5.25004C24.6388 5.25623 24.4069 5.3557 24.2347 5.52791C24.0624 5.70012 23.9629 5.9319 23.9567 6.17536C23.9567 6.65751 24.3717 7.05026 24.8823 7.05026C24.9976 7.05159 25.112 7.02987 25.2188 6.98637C25.3256 6.94288 25.4226 6.87848 25.5041 6.79697C25.5856 6.71547 25.65 6.61849 25.6935 6.51174C25.737 6.40499 25.7588 6.29063 25.7574 6.17536C25.7541 6.06493 25.7729 5.95495 25.8129 5.85193C25.8528 5.74892 25.9131 5.65498 25.99 5.57568C26.067 5.49637 26.1591 5.43332 26.2608 5.39027C26.3626 5.34721 26.472 5.32503 26.5825 5.32503C26.693 5.32503 26.8024 5.34721 26.9042 5.39027C27.006 5.43332 27.0981 5.49637 27.175 5.57568C27.252 5.65498 27.3122 5.74892 27.3522 5.85193C27.3921 5.95495 27.411 6.06493 27.4076 6.17536C27.4112 6.50793 27.3483 6.83786 27.2227 7.14581C27.0971 7.45377 26.9112 7.73355 26.676 7.96876C26.4408 8.20397 26.161 8.38987 25.853 8.51555C25.545 8.64124 25.215 8.70419 24.8823 8.70072Z" fill="#333333"/>
<path d="M18.4292 7.00062H5.57952C5.36039 7.00062 5.15024 6.9136 4.99529 6.75869C4.84034 6.60379 4.7533 6.39369 4.7533 6.17463C4.7533 5.95556 4.84034 5.74546 4.99529 5.59056C5.15024 5.43566 5.36039 5.34863 5.57952 5.34863H18.4292C18.6482 5.34863 18.8581 5.43558 19.0129 5.59034C19.1677 5.7451 19.2547 5.955 19.2547 6.17386C19.2547 6.39273 19.1677 6.60263 19.0129 6.75739C18.8581 6.91215 18.6482 6.99909 18.4292 6.99909V7.00062Z" fill="#333333"/>
<path d="M18.4292 14.0511H5.57949C5.36056 14.0511 5.15061 13.9641 4.9958 13.8094C4.841 13.6546 4.75403 13.4447 4.75403 13.2259C4.75403 13.007 4.841 12.7971 4.9958 12.6423C5.15061 12.4876 5.36056 12.4006 5.57949 12.4006H18.4292C18.6481 12.4006 18.8581 12.4876 19.0129 12.6423C19.1677 12.7971 19.2547 13.007 19.2547 13.2259C19.2547 13.4447 19.1677 13.6546 19.0129 13.8094C18.8581 13.9641 18.6481 14.0511 18.4292 14.0511Z" fill="#333333"/>
<path d="M18.4292 21.0998H5.57946C5.469 21.1031 5.35898 21.0843 5.25594 21.0444C5.1529 21.0044 5.05893 20.9442 4.9796 20.8673C4.90028 20.7903 4.83721 20.6983 4.79414 20.5965C4.75107 20.4948 4.72888 20.3854 4.72888 20.2749C4.72888 20.1645 4.75107 20.0551 4.79414 19.9533C4.83721 19.8516 4.90028 19.7595 4.9796 19.6826C5.05893 19.6057 5.1529 19.5455 5.25594 19.5055C5.35898 19.4656 5.469 19.4467 5.57946 19.4501H18.4292C18.5396 19.4467 18.6496 19.4656 18.7527 19.5055C18.8557 19.5455 18.9497 19.6057 19.029 19.6826C19.1083 19.7595 19.1714 19.8516 19.2145 19.9533C19.2575 20.0551 19.2797 20.1645 19.2797 20.2749C19.2797 20.3854 19.2575 20.4948 19.2145 20.5965C19.1714 20.6983 19.1083 20.7903 19.029 20.8673C18.9497 20.9442 18.8557 21.0044 18.7527 21.0444C18.6496 21.0843 18.5396 21.1031 18.4292 21.0998Z" fill="#333333"/>
<path d="M18.4292 28.1503H5.57946C5.469 28.1537 5.35898 28.1348 5.25594 28.0949C5.1529 28.055 5.05893 27.9947 4.9796 27.9178C4.90028 27.8409 4.83721 27.7488 4.79414 27.6471C4.75107 27.5453 4.72888 27.436 4.72888 27.3255C4.72888 27.215 4.75107 27.1056 4.79414 27.0039C4.83721 26.9021 4.90028 26.8101 4.9796 26.7331C5.05893 26.6562 5.1529 26.596 5.25594 26.5561C5.35898 26.5161 5.469 26.4973 5.57946 26.5006H18.4292C18.5396 26.4973 18.6496 26.5161 18.7527 26.5561C18.8557 26.596 18.9497 26.6562 19.029 26.7331C19.1083 26.8101 19.1714 26.9021 19.2145 27.0039C19.2575 27.1056 19.2797 27.215 19.2797 27.3255C19.2797 27.436 19.2575 27.5453 19.2145 27.6471C19.1714 27.7488 19.1083 27.8409 19.029 27.9178C18.9497 27.9947 18.8557 28.055 18.7527 28.0949C18.6496 28.1348 18.5396 28.1537 18.4292 28.1503Z" fill="#333333"/>
</svg>
