<svg width="24" height="24" viewBox="0 0 24 24" fill="none" xmlns="http://www.w3.org/2000/svg">
<path d="M12.8681 5.34722C13.5162 5.34722 14.0417 4.82178 14.0417 4.17361C14.0417 3.52544 13.5162 3 12.8681 3C12.2199 3 11.6945 3.52544 11.6945 4.17361C11.6945 4.82178 12.2199 5.34722 12.8681 5.34722Z" stroke="#333333" stroke-width="1.5" stroke-linecap="round" stroke-linejoin="round"/>
<path d="M15.2153 21.7779L14.2169 18.7827C14.1017 18.437 13.9075 18.1229 13.6499 17.8652L10.5208 14.7362M10.5208 14.7362L11.6944 8.86816M10.5208 14.7362L7 21.7779M11.6944 8.86816L14.9459 12.1197C15.1243 12.2981 15.3303 12.4465 15.556 12.5593L17.5625 13.5626M11.6944 8.86816L8.8437 10.7687C8.4094 11.0582 8.084 11.4842 7.91894 11.9794L7 14.7362" stroke="#333333" stroke-width="1.5" stroke-linecap="round" stroke-linejoin="round"/>
</svg>
